<svg width="632" height="572" viewBox="0 0 632 572" fill="none" xmlns="http://www.w3.org/2000/svg">
<g opacity="0.1">
<path d="M425.787 178.63C424.551 189.959 423.314 201.289 422.077 212.618C420.927 224.246 418.443 232.388 407.128 237.928C432.166 232.925 428.371 197.563 428.046 178.62C427.998 177.343 425.74 177.353 425.787 178.63Z" fill="black"/>
<path d="M437.661 186.157C437.076 200.847 437.095 217.62 430.582 230.803C441.323 219.944 439.758 200.069 439.92 186.147C439.872 184.87 437.912 184.794 437.661 186.157Z" fill="black"/>
<path d="M538.467 112.714C537.267 110.804 536.067 108.893 535.078 106.598C535.501 105.83 535.54 104.851 535.666 104.169C535.407 103.276 535.744 102.211 535.485 101.318C534.496 99.0229 533.641 98.3028 531.296 98.0148C526.521 97.1412 516.618 104.208 513.223 108.097C512.925 108.183 512.925 108.183 512.541 107.972C496.442 110.382 488.887 129.998 479.299 141.491C470.009 152.897 455.166 160.751 448.739 174.232C448.597 170.401 448.071 166.359 446.948 162.489C453.378 161.27 462.231 158.38 463.147 152.629C463.437 150.286 462.237 148.375 460.354 146.34C460.652 146.253 461.162 145.783 461.287 145.101C461.326 144.122 461.836 143.651 462.173 142.586C462.173 142.586 462.087 142.288 462.385 142.201C462.769 142.413 463.067 142.326 463.278 141.942C465.693 138.015 462.83 135.941 459.16 134.424C453.568 131.851 449.436 132.082 444.604 127.675C441.655 125.304 439.216 122.462 435.546 120.945C424.535 116.394 413.872 125.294 403.357 128.021L403.059 128.108C408.79 122.251 414.262 115.501 421.193 111.555C428.634 107.138 438.946 107.051 444.245 99.7063C447.044 95.9906 447.325 91.3915 448.375 87.2149C449.676 81.6749 452.859 78.1704 455.014 73.3505C456.621 69.9804 456.95 66.6583 453.617 64.0756C449.687 61.6657 443.305 64.1622 439.517 65.5833C436.028 66.9179 433.307 68.675 430.077 70.9026C422.723 75.617 415.783 77.307 407.047 77.2591C387.913 77.0002 374.271 86.7651 366.236 103.616C366.15 103.318 365.679 102.809 365.593 102.511C366.039 96.2513 371.684 90.0968 373.58 84.384C375.053 79.4392 373.859 67.524 379.473 64.6051C379.771 64.5187 380.155 64.7299 380.453 64.6435C383.394 64.7586 385.048 62.6655 384.867 59.8139C384.168 55.1765 377.462 50.9904 373.252 53.1796C372.954 53.266 372.656 53.3525 372.656 53.3525C372.358 53.4389 372.444 53.7365 372.146 53.8229L371.848 53.9094C366.752 58.6141 366.354 66.1512 365.312 72.5841C364.145 79.6987 359.395 85.594 357.459 92.2862C350.706 86.8231 347.097 78.8349 340.642 73.2854C335.983 69.4738 330.266 67.5825 324.424 66.3728C315.68 64.0686 299.673 56.7719 292.633 65.9125C288.816 70.5693 289.514 75.2067 283.391 78.5961C279.564 80.9965 275.941 80.7565 274.17 85.7877C270.542 95.5523 280.926 103.512 286.957 109.829C284.103 110.012 281.508 111.087 279.43 113.948C276.506 118.346 277.801 122.81 282.452 124.366C283.134 124.49 283.73 124.318 283.941 123.934C285.988 124.308 287.776 123.789 289.775 122.887C291.265 122.455 292.755 122.023 294.245 121.591C299.564 131.019 304.247 141.6 313.729 147.562C308.319 147.84 303.119 147.735 297.834 147.332C291.568 146.89 285.86 147.255 280.457 149.79C280.073 149.579 279.689 149.368 279.093 149.54C268.06 150.482 256.876 145.335 245.977 147.851C237.461 149.676 232.71 155.571 226.681 161.514C223.2 165.105 211.376 171.116 210.844 177.078C210.641 179.719 211.707 180.055 212.311 182.138C213.904 186.516 216.689 190.549 218.07 195.311C216.087 200.726 216.747 206.343 223.194 209.636C234.252 215.464 248.098 203.059 258.229 200.121C268.658 197.096 279.95 197.048 290.465 194.321C298.298 192.372 303.826 189.155 310.075 185.084C305.246 192.938 301.484 201.128 295.887 208.559C289.27 216.932 279.877 223.528 276.507 234.186C274.148 241.646 274.229 251.948 280.174 257.968C285.178 262.97 290.071 260.906 295.646 258.966C303.661 259.869 310.609 260.435 317.791 255.126C327.607 247.761 329.988 234.809 335.107 224.612C335.953 223.076 336.588 221.924 337.435 220.388C349.378 223.7 350.409 237.276 348.153 249.547C346.499 251.64 344.46 253.522 341.394 254.088C336.838 255.087 332.313 252.85 328.055 253.762C325.969 254.367 323.845 255.951 323.555 258.294C322.967 260.723 324.936 263.056 325.925 265.351C324.348 265.485 322.561 266.004 321.455 266.647C319.456 267.55 318.138 268.577 317.08 270.497C316.398 270.372 316.1 270.459 315.206 270.718C309.458 272.062 309.492 281.088 308.528 285.562C308.489 286.541 308.066 287.309 307.94 287.991C297.701 296.124 290.065 305.437 281.151 314.799C272.746 323.69 262.028 329.057 254.18 338.754C252.807 336.248 251.435 333.743 250.571 330.766C247.386 322.01 245.863 313.417 238.168 306.936C228.851 299.313 207.247 299.447 201.666 311.392C201.243 312.16 202.741 313.984 202.702 314.963C201.911 320.033 200.861 324.209 197.764 328.012C196.024 329.807 193.726 330.796 192.543 333.398C190.56 338.813 195.093 343.307 198.599 346.485C203.431 350.891 208.09 354.703 211.392 360.521C212.765 363.027 213.926 365.917 215.001 368.51C194.241 389.374 173.653 410.833 149.214 427.924C143.56 431.822 137.994 436.018 132.043 440.003C127.495 443.258 120.681 444.266 116.988 448.241C116.181 448.798 115.757 449.566 115.334 450.334C112.825 451.707 110.7 453.291 108.191 454.664C105.894 455.653 103.596 456.642 102.028 459.033C100.672 461.04 100.767 463.594 101.159 466.061C101.984 470.017 104.039 472.648 103.585 476.652C99.0455 482.163 97.2744 487.194 101.761 490.41C104.153 491.975 110.379 493.396 113.367 494.788C114.818 495.336 116.057 496.267 117.72 496.43C123.476 497.342 126.534 494.519 130.226 490.544C137.188 483.362 144.534 476.392 152.351 469.93C154.986 467.875 157.62 465.82 160.254 463.766C160.004 465.129 160.263 466.022 160.992 467.424C163.777 471.456 174.175 471.667 178.567 472.33C187.609 474.547 196.893 473.145 205.487 469.362C216.676 464.504 225.638 456.419 237.211 451.772C246.997 447.643 253.622 441.527 261.227 435.449C259.534 438.522 257.754 441.297 255.379 444.244C252.792 447.576 250.032 450.312 248.684 454.575C246.325 462.036 248.107 471.522 253.496 476.735C254.437 477.753 256.138 476.937 256.091 475.66C255.704 463.188 262.572 453.452 267.133 442.449C267.47 441.383 268.105 440.231 268.654 438.781C268.294 445.338 267.849 451.599 270.642 457.887C272.36 461.584 275.395 464.253 277.325 467.565C281.396 473.806 280.174 477.388 278.536 483.993C276.773 491.281 278.383 500.172 286.06 502.14C285.637 502.908 285.3 503.973 284.877 504.742C282.768 510.838 286.778 523.551 294.776 519.94C295.074 519.854 295.286 519.47 295.584 519.383C297.371 518.865 298.9 517.454 300.343 515.744C305.392 509.763 310.182 502.888 315.23 496.906C322.866 487.593 327.005 477.358 325.724 465.145C326.492 465.567 327.175 465.692 327.943 466.115C328.625 466.239 329.221 466.067 329.645 465.298C334.685 457.06 328.236 441.506 320.495 433.749C318.353 430.82 315.827 427.681 313.686 424.752C312.572 423.139 311.458 421.526 310.133 420.297C309.278 419.577 308.721 418.771 307.952 418.348C313.795 419.558 319.676 419.788 324.97 422.448C330.177 424.81 334.24 428.794 339.784 430.09C346.78 431.934 352.959 432.077 359.406 435.371C364.017 437.905 368.119 440.91 372.942 443.061C385.49 448.457 403.658 440.929 394.527 426.153C393.97 425.346 392.99 425.308 392.48 425.778C393.24 423.944 394.299 422.024 394.079 420.152C394.187 414.957 391.645 407.305 387.457 404.002C381.943 399.471 372.439 399 365.694 395.794C357.028 391.531 349.295 386.03 340.841 381.383C343.475 379.328 345.937 376.678 347.716 373.903C347.928 373.519 347.755 372.924 347.371 372.713C347.285 372.415 347.285 372.415 346.987 372.501L346.689 372.588C346.391 372.674 346.391 372.674 346.093 372.761C343.411 373.538 340.557 373.721 337.789 374.201C328.708 372.962 320.097 372.233 311.331 375.421C314.731 361.528 324.907 347.605 332.448 335.738C338.21 326.645 347.595 317.793 348.831 306.463C356.256 297.534 366.206 291.744 375.34 284.255C382.349 278.35 391.915 272.349 395.802 263.477C400.475 259.541 404.936 255.988 411.021 253.578C413.884 255.652 417.805 255.805 421.169 255.152C424.446 254.202 427.677 251.974 429.754 249.113C432.168 245.186 431.085 240.337 434.268 236.833C434.48 236.449 434.692 236.065 434.605 235.767C437.538 233.626 441.623 232.118 443.912 228.873C445.48 226.482 446.365 223.967 446.867 221.24C458.532 206.886 470.629 194.02 487.558 185.561C494.576 181.912 502.236 179.367 508.438 174.019C513.323 169.699 514.083 167.865 521.1 164.216C523.014 163.016 525.186 162.709 527.099 161.508C534.665 156.41 538.066 142.517 533.61 136.065C534.409 133.252 535.209 130.438 536.008 127.625C537.152 126.003 538.595 124.294 540.508 123.093C540.931 122.325 541.951 121.384 541.99 120.405C542.232 116.785 540.138 115.134 538.467 112.714ZM474.785 153.771C473.562 157.352 473.022 161.058 471.329 164.131C466.461 172.964 455.82 176.373 449.243 183.766C449.321 181.807 449.399 179.849 449.092 177.679C456.901 168.96 466.506 161.98 474.785 153.771ZM418.687 125.189C437.96 117.018 436.08 127.243 447.099 134.05C446.292 134.607 445.186 135.25 444.888 135.337C441.61 136.287 439.469 133.359 437.375 131.708C435.579 129.97 433.783 128.232 431.563 127.262C428.489 125.573 424.693 124.737 421.675 126.581C421.377 126.667 421.549 127.263 421.761 126.879C430.182 122.5 434.874 135.337 441.273 137.353C444.175 138.448 447.367 137.199 448.934 134.809C449.617 134.934 450.385 135.356 451.067 135.481C451.028 136.46 450.903 137.142 450.096 137.699C449.374 138.553 448.567 139.11 447.375 139.456C447.077 139.542 447.25 140.137 447.547 140.051C449.633 139.446 452.229 138.371 452.518 136.028C453.201 136.153 453.883 136.278 454.651 136.7C455.891 137.631 455.303 140.061 454.197 140.704C453.899 140.79 454.072 141.386 454.284 141.001C455.389 140.358 456.534 138.736 456.784 137.372C458.918 138.044 460.541 139.187 461.271 140.588C460.973 140.675 460.675 140.761 460.377 140.848C459.781 141.021 459.271 141.491 458.762 141.962C458.04 142.816 457.79 144.179 458.049 145.072C450.872 140.377 437.91 138.006 433.941 136.576C433.557 136.364 433.134 137.133 433.518 137.344C439.157 141.194 463.044 147.818 453.064 156.844C445.843 163.133 430.44 157.919 421.838 159.446C412.256 160.935 400.479 168.222 388.82 172.572C385.456 173.225 383.392 168.338 379.134 169.25C376.75 169.941 375.308 171.65 373.395 172.851C371.184 174.137 368.502 174.915 366.032 175.309C364.965 174.973 363.899 174.637 362.746 174.003C367.6 172.918 372.234 169.961 375.33 166.158C375.628 166.072 375.158 165.563 374.946 165.947C371.418 168.261 366.909 170.537 362.604 170.172C359.961 169.97 357.358 168.79 355.052 167.522C357.185 168.194 359.53 168.482 361.788 168.473C362.086 168.386 362.298 168.002 361.913 167.791C359.953 167.714 357.82 167.042 356.196 165.9C355.428 165.477 354.573 164.757 354.016 163.951C353.93 163.653 353.545 163.442 353.459 163.144C353.671 162.76 354.094 161.992 354.306 161.608C361.309 165.707 369.143 163.758 375.258 158.113C375.556 158.026 375.085 157.517 374.874 157.901C368.797 162.568 362.493 163.105 356.344 159.726C361.245 159.918 366.946 157.297 370.647 155.578C379.154 151.497 385.253 141.339 395.353 141.636C395.651 141.55 395.565 141.252 395.267 141.339C389.213 140.513 385.214 142.318 380.455 145.957C374.59 150.239 364.774 157.604 356.461 156.788C357.48 155.847 358.5 154.906 359.519 153.965C363.518 152.16 367.862 151.545 371.563 149.827C374.37 148.367 379.859 146.13 381.465 142.76C384.044 137.172 377.105 138.862 373.145 139.688C373.654 139.217 373.866 138.833 374.289 138.065C377.394 136.519 380.499 134.973 383.863 134.32C388.419 133.322 392.599 134.368 397.03 134.051C405.891 133.417 411.496 128.242 418.687 125.189ZM444.801 169.566C444.715 169.268 444.715 169.268 444.331 169.057C442.064 166.81 439.123 166.695 436.347 164.919C435.492 164.199 434.637 163.479 433.782 162.758C436.723 162.874 439.663 162.989 443.114 162.633C443.2 162.931 443.286 163.229 443.286 163.229C443.679 165.696 444.283 167.78 444.801 169.566ZM445.367 172.628C445.414 173.905 445.759 175.096 445.893 176.671C445.375 174.885 444.645 173.483 443.32 172.254C442.081 171.323 440.802 171.371 439.438 171.121C434.96 170.161 433.548 168.634 430.513 165.965C429.274 165.034 427.65 163.892 425.517 163.22C427.093 163.085 428.371 163.037 430.034 163.2C431.955 164.256 433.751 165.994 435.673 167.05C436.912 167.982 438.277 168.231 439.939 168.394C442.284 168.682 444.08 170.42 445.367 172.628ZM393.728 209.547C393.274 213.55 394.31 217.122 395.135 221.078C391.356 224.755 387.365 228.817 383.115 231.985C380.991 233.569 378.78 234.856 377.039 236.651C376.78 235.759 376.435 234.568 376.262 233.973C376.176 233.675 376.176 233.675 376.09 233.377C376.354 224.266 376.023 215.327 377.182 205.956C378.301 197.564 380.017 189 377.302 180.752L377.215 180.455C381.089 179.331 385.174 177.824 388.961 176.403C396.834 173.474 403.977 169.144 411.849 166.215C409.546 177.209 402.977 186.858 398.156 196.969C397.858 197.055 397.945 197.353 397.647 197.439C397.435 197.823 397.223 198.207 397.098 198.889C395.491 202.259 394.269 205.84 393.728 209.547ZM397.995 210.891C400.607 214.328 404.834 216.651 405.446 220.991C406.404 226.521 402.327 230.285 399.019 234.471C399.818 231.658 400.233 228.634 400.264 225.398C399.777 220.377 397.8 215.787 397.995 210.891ZM372.937 233.646C371.024 234.846 370.052 237.064 369.08 239.282C369.523 220.761 375.658 197.363 364.222 181.319C366.269 181.694 368.229 181.77 370.487 181.761C370.574 182.058 370.66 182.356 370.746 182.654C374.536 193.493 372.57 203.421 371.929 214.578C371.523 219.859 370.818 225.226 371.988 230.372C371.949 231.352 372.592 232.456 372.937 233.646ZM368.532 240.732C368.195 241.798 367.858 242.864 367.434 243.632C366.164 245.936 364.636 247.348 362.934 248.164C366.741 228.99 368.337 211.102 357.747 193.523C357.959 193.139 357.959 193.139 358.17 192.754C359.989 189 360.231 185.381 359.878 181.934C374.687 199.581 366.324 219.753 368.532 240.732ZM360.247 224.42C359.195 216.335 356.354 208.77 352.62 201.463C353.851 200.138 354.698 198.602 355.842 196.979C360.902 205.515 363.876 214.655 364.85 224.698C365.605 232.869 363.544 240.243 362.636 248.25C361.444 248.596 360.252 248.941 358.676 249.076C359.71 240.387 361.174 233.186 360.247 224.42ZM357.398 249.124C357.1 249.21 357.1 249.21 356.802 249.297C356.12 249.172 355.524 249.345 354.928 249.518C356.493 234.866 356.184 220.435 346.34 208.77C347.571 207.445 348.504 206.206 349.735 204.881C353.469 212.188 357.502 219.408 358.64 227.79C360.116 235.106 358.181 241.798 357.398 249.124ZM368.847 176.106C370.039 175.76 371.019 175.798 372.125 175.155C374.72 174.08 378.327 169.807 381.613 171.113C383.15 171.958 384.177 173.273 385.33 173.907C379.544 176.23 374.007 177.19 368.847 176.106ZM374.821 132.103C371.466 135.012 368.926 139.621 365.954 142.741C363.791 145.305 360.858 147.446 358.397 150.096C358.647 148.732 358.984 147.667 359.533 146.217C361.68 139.141 365.278 132.612 367.425 125.535C367.637 125.151 367.55 124.854 367.762 124.47C369.667 121.013 371.274 117.643 372.794 113.975C373.454 119.592 371.605 126.582 374.821 132.103ZM376.999 121.791C377.492 116.808 375.468 110.941 376.729 106.381C381.063 91.2488 403.004 90.0482 415.941 85.6505C414.783 95.0214 395.908 95.6555 389.62 100.706C382.736 105.929 381.953 113.255 380.661 121.051C379.36 126.591 375.935 133.716 376.999 121.791ZM372.808 140.753C374.682 140.533 376.681 139.63 377.748 139.966C384.532 142.193 374.66 146.024 373.468 146.37C370.363 147.916 367.085 148.867 363.596 150.201C366.057 147.551 368.817 144.815 371.279 142.165C371.875 141.992 372.384 141.522 372.808 140.753ZM368.291 106.246C373.12 98.3923 377.949 90.5383 386.198 85.5647C396.061 79.4772 404.805 81.7814 415.156 80.7154C420.779 80.0528 424.864 78.5454 429.498 75.5881C429.796 75.5016 430.007 75.1176 430.305 75.0312C432.391 74.4262 434.563 74.119 435.34 76.7977C436.117 79.4765 434.126 82.6353 433.154 84.8533C435.232 81.992 438.626 78.1034 436.312 74.5798C435.669 73.4756 434.516 72.842 433.449 72.5059C435.065 71.3922 436.382 70.3648 438.083 69.5486C443.399 66.7162 445.352 64.5366 448.866 69.9709C452.294 75.1076 450.796 73.2833 448.083 77.2967C446.006 80.158 446.053 81.435 444.744 84.7186C442.338 90.9019 442.018 96.4803 435.298 100.043C431.683 102.059 427.041 102.76 422.956 104.267C410.489 109.174 402.516 119.553 392.919 128.79C392.621 128.876 392.708 129.174 392.708 129.174C391.43 129.222 390.151 129.27 388.873 129.318C391.444 121.474 397.849 113.485 404.78 109.539C411.115 105.765 417.286 103.653 421.951 97.46C422.249 97.3736 421.864 97.1624 421.566 97.2488C414.777 105.026 404.34 105.794 396.907 112.467C392.532 116.318 386.849 123.452 385.721 129.587C384.827 129.846 383.549 129.894 382.443 130.537C381.251 130.883 380.146 131.526 379.04 132.17C384.512 125.42 386.91 116.98 393.919 111.075C401.862 103.932 412.252 101.886 419.378 93.0435C419.589 92.6594 419.205 92.4482 418.993 92.8323C411.867 101.675 400.834 102.616 392.421 109.251C386.854 113.447 384.064 119.419 380.505 124.969C380.967 123.221 381.343 121.176 381.719 119.131C383.176 109.674 385.841 104.383 395.588 101.234C405.93 97.9116 414.791 97.2777 418.969 86.0633C419.729 84.2294 417.211 83.3462 416.106 83.9895C401.622 85.2859 381.603 87.5426 373.599 101.157C372.329 103.462 371.953 105.507 371.962 107.763C371.162 110.576 370.065 113.476 368.968 116.376C369.508 112.67 369.155 109.223 368.291 106.246ZM359.475 95.8962C361.497 89.5017 365.738 84.0769 367.078 77.5575C368.331 70.7406 368.423 61.0336 374.499 56.3672C374.797 56.2808 375.009 55.8968 374.923 55.5991C376.413 55.167 378.075 55.3302 379.228 55.9639C379.997 56.3863 381.149 57.02 381.495 58.2106C381.667 58.8058 381.801 60.3805 381.378 61.1486C381.166 61.5326 379.033 60.8606 378.053 60.8222C376.688 60.5726 375.026 60.4094 373.834 60.7551C372.94 61.0143 372.987 62.2913 373.756 62.7137C374.438 62.8385 375.207 63.261 375.975 63.6834C371.389 67.9177 371.932 76.4725 370.631 82.0125C369.119 87.9365 364.07 93.9183 363.326 100.265C362.942 100.054 362.856 99.7559 362.385 99.247C361.146 98.3157 359.993 97.6821 358.927 97.346C359.35 96.5779 359.263 96.2803 359.475 95.8962ZM357.79 101.225C372.268 109.933 363.975 125.891 358.904 137.364C356.411 143.25 355.746 147.638 354.445 153.178C353.974 152.669 353.59 152.458 353.119 151.949C353.033 151.651 352.861 151.056 352.774 150.758C352.688 150.461 352.304 150.249 352.217 149.952C349.8 141.618 358.283 130.768 359.959 123.183C361.385 116.962 360.686 112.324 356.364 107.447C351.486 101.763 343.839 96.559 336.796 93.4387C333.895 92.3442 317.685 87.6879 321.762 83.9241C329.297 82.0613 336.395 88.7149 342.034 92.5649C347.203 95.9061 352.708 98.1815 357.79 101.225ZM283.223 102.523C277.701 95.7346 273.733 94.304 285.666 83.0991C290.049 81.5052 294.652 81.7835 299.687 83.5501C300.071 83.7613 299.899 83.166 299.899 83.166C297.122 81.3898 294.644 79.5272 291.233 78.9032C291.444 78.5191 291.656 78.1351 291.954 78.0486C292.887 76.81 292.667 74.9378 293.6 73.6992C294.023 72.9311 294.533 72.4606 294.956 71.6925C295.301 72.8831 295.646 74.0736 296.203 74.8801C297.231 76.1955 298.682 76.7427 300.133 77.29C301.968 78.0485 303.717 78.5093 305.128 80.0359C307.011 82.0713 305.953 83.9916 303.012 83.8764C302.33 83.7516 302.291 84.731 302.675 84.9422C306.431 86.7568 310.854 84.1835 308.665 79.9782C307.378 77.7699 305.159 76.8002 302.728 76.2146C300.979 75.7538 299.019 75.677 297.693 74.448C296.838 73.7279 295.811 72.4126 295.763 71.1356C298.821 68.3128 302.993 67.1029 306.702 67.6405C316.081 68.7925 329.303 72.0567 336.526 78.0286C342.126 82.8579 345.217 89.0603 350.221 94.0625C349.837 93.8513 349.539 93.9377 349.155 93.7265C344.418 91.8735 340.355 87.8891 336.042 85.268C331.728 82.6469 325.964 79.4786 321.455 81.7542C321.157 81.8406 321.071 81.543 320.773 81.6294C306.298 85.1822 333.739 96.2616 336.515 98.0378C342.577 101.12 349.283 105.306 353.393 110.567C354.421 111.883 355.448 113.198 355.88 114.686C354.766 113.073 353.056 111.633 351.346 110.193C345.15 105.536 336.869 101.485 329.74 98.0667C329.355 97.8555 329.442 98.1531 329.528 98.4507C334.312 101.581 338.587 105.181 343.582 107.927C350.288 112.113 355.629 116.049 356.384 124.22C355.882 126.947 354.699 129.549 353.602 132.449C353.476 133.13 353.265 133.514 352.841 134.282C352.911 130.067 352.298 125.728 350.196 121.82C347.066 116.597 340.878 114.197 336.729 109.915C336.345 109.703 336.133 110.087 336.22 110.385C339.388 114.629 344.212 116.779 346.871 121.494C350.001 126.717 349.555 132.977 351.282 138.93C350.396 141.445 349.895 144.172 349.99 146.726C347.11 140.139 347.509 132.602 344.543 125.718C341.02 118.028 333.256 115.762 326.465 111.278C326.465 111.278 326.167 111.365 326.253 111.662C329.586 114.245 333.045 116.146 336.08 118.815C342.449 124.067 342.897 130.068 344.161 137.768C344.554 140.235 344.86 142.405 345.551 144.786C344.005 141.685 343.267 138.027 342.02 134.84C340.388 131.441 338.16 128.215 335.721 125.373C330.756 119.391 324.732 115.33 318.113 111.442C317.729 111.23 317.815 111.528 317.901 111.826C326.49 118.047 333.415 124.105 338.138 133.707C339.77 137.106 340.296 141.148 341.63 144.633C335.512 138.018 331.134 129.607 324.42 123.165C317.15 115.916 307.166 112.68 297.105 111.404C294.376 110.904 291.051 110.578 288.11 110.463C286.863 107.275 285.192 104.856 283.223 102.523ZM348.736 153.543C345.537 152.535 342.51 152.122 339.271 152.093C335.436 152.237 331.563 153.361 327.775 154.782C330.112 152.813 331.891 150.039 333.2 146.755C333.585 146.966 334.181 146.793 334.392 146.409C337.803 147.033 341.474 148.55 344.25 150.326C345.787 151.171 347.113 152.4 348.736 153.543ZM284.278 122.868C284.192 122.57 284.019 121.975 283.337 121.85C283.571 115.974 285.437 113.497 288.935 114.419C290.299 114.668 291.577 114.62 293.24 114.783C297.929 115.359 301.639 115.897 306.116 116.857C313.41 118.614 319.001 121.187 324.178 126.784C329.355 132.382 333.426 138.623 338.814 143.836C337.066 143.375 335.701 143.126 334.211 143.558C334.211 143.558 334.211 143.558 334.125 143.26C327.717 138.988 323.058 135.176 318.391 129.108C315.779 125.671 313.081 121.936 309.536 119.737C305.607 117.327 301.09 117.347 296.448 118.048C293.256 119.296 288.325 122.34 284.278 122.868ZM304.857 133.679C301.986 129.348 300.394 124.97 296.801 121.495C301.655 120.41 306.258 120.688 311.215 124.413C317.584 129.665 320.989 140.294 328.079 144.691C325.052 144.278 321.9 144.547 318.614 143.241C317.547 142.905 316.779 142.483 316.01 142.06C312.167 139.948 307.728 138.009 304.857 133.679ZM300.925 153.534C309.833 154.177 320.819 151.959 329.029 147.965C321.958 160.341 305.497 157.048 293.186 158.037C289.438 158.479 285.776 159.218 282.459 161.148C278.249 163.338 275.372 169.012 271.671 170.731C262.991 174.216 275.935 159.814 277.252 158.787C284.982 152.027 291.632 152.68 300.925 153.534ZM218.591 174.831C221.178 171.5 225.004 169.099 227.678 166.065C228.399 165.211 228.909 164.74 229.63 163.886C231.897 166.132 224.935 173.314 223.406 174.726C221.367 176.608 218.435 178.749 216.569 181.226C216.263 179.056 216.725 177.309 218.591 174.831ZM302.751 186.563C296.416 190.336 288.794 191.901 281.384 193.082C270.908 194.83 260.47 195.598 250.3 199.516C247.109 200.764 243.918 202.012 240.429 203.347C245.486 199.622 249.515 194.581 256.455 192.891C256.753 192.804 256.666 192.507 256.369 192.593C250.15 193.429 246.536 195.445 241.565 199.468C237.613 202.55 233.489 205.037 228.972 205.056C233.394 202.483 237.51 197.74 239.337 196.242C246.856 189.867 253.113 188.052 262.233 188.311C264.79 188.215 267.134 188.503 269.902 188.023C280.167 186.659 286.438 177.096 296.491 176.117C296.789 176.03 296.915 175.348 296.319 175.521C290.908 175.8 288.36 178.152 283.938 180.725C278.112 184.028 272.623 186.266 265.848 186.295C261.331 186.314 256.681 184.759 252.25 185.075C247.522 185.479 244.503 187.322 240.763 190.02C238.426 191.989 229.983 201.859 224.533 203.117C220.768 199.046 221.974 190.952 225.878 186.593C226.388 186.122 225.745 185.018 224.937 185.575C222.812 187.16 220.562 189.425 218.995 191.816C219.198 189.176 219.785 186.747 221.738 184.567C224.199 181.917 227.218 180.074 229.594 177.126C232.055 174.476 234.854 170.76 233.434 166.977C233.347 166.68 233.05 166.766 233.136 167.064C234.4 174.764 223.634 178.854 219.432 183.3C218.499 184.538 217.566 185.777 217.315 187.14C217.143 186.545 216.97 185.95 216.797 185.355C216.711 185.057 216.711 185.057 216.625 184.759C218.906 179.258 224.347 175.744 227.781 170.876C228.925 169.253 231.763 164.558 229.457 163.29C237.054 154.956 244.62 149.858 257.67 152.527C262.445 153.4 267.096 154.956 271.785 155.532C270.853 156.77 270.131 157.625 269.112 158.566C266.054 161.389 261.663 160.726 257.578 162.234C257.28 162.32 257.452 162.915 257.75 162.829C260.816 162.263 263.843 162.675 266.823 161.811C262.284 167.322 258.984 173.765 263.384 176.684C265.862 178.546 268.198 176.578 270.409 175.291C273.342 173.15 275.121 170.375 277.669 168.023C283.996 161.993 290.983 161.58 299.209 162.099C305.475 162.54 312.164 162.214 318.037 160.188C324.679 158.584 331.571 155.617 338.346 155.588C341.969 155.828 345.255 157.134 348.541 158.44C348.628 158.737 348.33 158.824 348.416 159.121C348.502 159.419 348.291 159.803 348.291 159.803C346.455 159.044 344.918 158.2 342.872 157.825C340.44 157.24 337.97 157.633 335.798 157.94C335.5 158.027 335.587 158.325 335.971 158.536C338.825 158.353 342.15 158.68 344.629 160.542C345.782 161.176 346.636 161.896 347.789 162.53C347.578 162.914 347.366 163.298 347.154 163.682C341.226 162.175 335.768 161.176 329.597 163.289C322.532 165.66 315.726 168.925 309.006 172.487C308.708 172.573 308.881 173.169 309.092 172.785C314.706 169.866 321.387 167.283 327.433 165.852C333.478 164.421 338.341 165.593 344.097 166.505C336.954 170.835 322.635 170.47 316.77 174.753C315.962 175.31 315.453 175.78 314.645 176.337C309.964 178.017 305.667 179.909 301.158 182.185C298.053 183.73 295.333 185.487 292.314 187.331C286.402 190.336 281.376 190.826 274.859 191.748C274.561 191.834 274.648 192.132 274.946 192.046C281.932 191.633 287.304 192.333 293.514 189.242C298.619 186.793 303.339 184.134 308.53 181.983C307.299 183.308 305.26 185.19 302.751 186.563ZM329.907 224.507C326.02 233.378 323.928 243.988 316.496 250.661C314.159 252.629 311.948 253.916 309.862 254.521C305.942 254.367 302.012 251.957 299.024 250.565C296.036 249.173 293.307 248.674 291.23 251.535C291.018 251.919 291.489 252.428 291.7 252.044C294.883 248.539 301.252 253.791 305.605 255.433C300.578 255.923 295.889 255.347 290.87 258.093C290.87 258.093 290.87 258.093 290.572 258.179C287.632 258.064 284.605 257.651 282.511 256C281.271 255.069 280.158 253.456 279.553 251.372C282.965 251.996 285.632 258.967 289.325 254.992C289.537 254.608 289.152 254.396 288.854 254.483C286.73 256.067 284.416 252.543 283.388 251.228C282.062 249.999 280.525 249.154 278.949 249.289C277.913 245.717 277.685 241.588 277.888 238.948C279.556 229.107 287.499 221.963 294.422 215.761C305.335 205.496 312.743 192.054 320.707 179.419C321.601 179.16 322.495 178.9 323.687 178.555C323.734 179.832 323.57 181.493 323.233 182.559C322.309 186.053 320.231 188.915 318.154 191.776C314.634 196.346 311.027 200.619 308.276 205.612C308.064 205.996 308.747 206.121 309.045 206.034C312.219 200.273 317.402 195.866 321.345 190.528C322.787 188.819 323.846 186.898 324.818 184.68C325.79 182.462 325.483 180.293 325.773 177.95C329.349 176.913 333.308 176.087 336.884 175.05C341.114 189.634 323.896 200.436 318.911 212.208C318.997 212.505 318.997 212.505 319.295 212.419C325.942 200.811 344.352 189.663 339.777 173.888C341.863 173.283 343.565 172.467 345.266 171.651C347.157 175.943 345.135 182.337 343.105 186.476C341.075 190.614 337.978 194.416 335.564 198.343C335.352 198.727 335.736 198.938 335.948 198.554C340.95 191.295 351.604 180.138 348.073 170.192C348.583 169.721 349.092 169.251 349.986 168.991C357.023 182.116 352.924 191.372 343.845 202.395C338.287 208.847 333.372 216.403 329.907 224.507ZM296.957 302.47C294.841 306.311 293.791 310.487 293.039 314.577C289.26 318.255 286.25 322.355 282.086 325.821C280.8 323.613 279.388 322.086 277.466 321.03C277.169 321.116 277.082 320.819 276.784 320.905C283.794 315 290.332 308.586 296.957 302.47ZM285.695 333.809C285.005 331.428 284.016 329.133 282.816 327.223C286.431 325.206 289.402 322.086 292.373 318.965C291.911 320.713 290.947 325.187 289.858 330.343C288.455 331.073 286.926 332.484 285.695 333.809ZM289.569 332.686C288.942 336.094 288.316 339.503 287.814 342.229C287.508 340.059 286.731 337.381 286.04 335C287.06 334.059 288.252 333.713 289.569 332.686ZM279.538 328.173C282.691 327.904 286.475 348.749 286.656 351.6C286.837 354.452 286.806 357.688 286.391 360.712C286.015 362.757 286.023 365.013 285.349 367.145C285.224 367.827 285.099 368.508 285.185 368.806L284.887 368.892C283.013 369.113 281.161 363.842 279.741 360.059C279.521 358.187 279.301 356.315 279.081 354.442C279.064 349.93 280.412 345.667 280.482 341.452C280.513 338.216 279.736 335.537 279.171 332.475C278.778 330.007 276.684 328.356 279.538 328.173ZM279.39 368.873C279.476 369.171 279.476 369.171 279.563 369.469C280.59 370.784 281.061 371.293 281.618 372.099C279.078 376.708 276.538 381.317 273.998 385.925C273.787 386.309 273.575 386.693 273.152 387.462C273.01 383.631 272.484 379.588 272.726 375.969C273.344 370.304 274.174 364.255 275.686 358.331C275.859 358.926 275.82 359.906 275.993 360.501C276.472 363.266 277.421 366.54 279.39 368.873ZM276.007 352.753C274.188 356.507 273.052 360.386 271.916 364.265C270.245 361.845 268.574 359.426 266.605 357.093C268.26 355 269.914 352.906 272.039 351.322C272.25 350.938 271.866 350.727 271.568 350.813C269.443 352.398 267.232 353.684 265.194 355.566C264.166 354.251 263.138 352.935 261.727 351.409C266.447 348.749 271.465 346.003 275.926 342.45C276.107 345.302 275.692 348.326 275.575 351.264C275.959 351.476 275.834 352.157 276.007 352.753ZM275.957 339.215C271.198 342.854 265.584 345.773 261.209 349.623C260.181 348.308 259.154 346.992 258.126 345.677C260.462 343.709 263.27 342.249 265.606 340.281C268.538 338.14 271.173 336.085 274.105 333.944C274.709 336.027 275.439 337.429 275.957 339.215ZM271.774 325.907C271.822 327.184 271.869 328.461 272.214 329.652C272.473 330.545 272.732 331.438 273.289 332.244C269.761 334.558 266.703 337.381 263.175 339.695C261.05 341.279 258.839 342.566 257.185 344.659C256.157 343.344 255.514 342.24 254.486 340.924C260.563 336.258 266.169 331.083 271.774 325.907ZM202.089 345.15C196.199 342.663 194.818 337.901 198.243 330.777C199.858 329.663 201.262 328.933 202.493 327.608C203.724 326.283 205.848 324.699 206.609 322.865C208.678 317.748 203.674 312.745 208.856 308.338C218.625 299.697 234.93 306.907 240.335 316.633C245.01 324.957 247.004 334.059 251.679 342.384C256.912 351.514 262.529 360.856 269.078 368.96C269.549 369.469 269.933 369.68 270.615 369.805C270.365 371.168 270.114 372.532 269.863 373.895C269.95 374.193 269.738 374.577 269.824 374.874C268.279 371.773 266.224 369.142 263.188 366.473C256.859 360.242 251.211 354.136 247.007 346.32C240.699 334.597 237.842 322.519 226.266 314.905C226.18 314.608 225.968 314.992 226.055 315.289C237.764 324.478 239.438 339.158 246.216 351.39C252.052 362.604 262.812 368.518 269.284 378.58C268.994 380.923 268.493 383.65 268.501 385.906C266.235 383.66 263.458 381.883 260.47 380.491C254.706 377.323 249.24 374.068 243.898 370.132C243.812 369.834 243.6 370.218 243.687 370.516C247.577 373.905 251.342 377.976 255.828 381.192C258.691 383.266 261.169 385.129 263.734 387.289C261.562 387.596 259.476 388.201 257.39 388.806C257.304 388.508 257.304 388.508 256.92 388.297C252.386 383.804 246.073 382.085 240.818 378.447C233.94 373.665 229.908 366.445 224.559 360.252C224.472 359.955 224.261 360.339 224.261 360.339C228.841 366.109 232.191 373.204 237.58 378.418C242.2 383.209 248.176 385.993 253.728 389.545C252.834 389.805 251.94 390.064 250.662 390.112C246.482 389.065 242.6 387.933 238.68 387.779C237.009 385.36 234.319 383.881 232.013 382.614C222.06 376.143 220.153 367.338 214.152 357.785C210.81 352.946 207.046 348.875 202.089 345.15ZM265.154 391.072C266.221 391.408 266.989 391.83 267.844 392.55C266.739 393.194 265.845 393.453 264.653 393.799C264.864 393.415 265.162 393.328 265.076 393.03C265.884 392.474 265.711 391.878 265.154 391.072ZM256.293 391.706L256.591 391.619C258.975 390.928 260.849 390.707 262.511 390.87C262.511 390.87 262.213 390.957 262.3 391.254C262.088 391.638 261.578 392.109 261.367 392.493C259.618 392.032 257.955 391.869 256.293 391.706ZM259.963 393.223C252.146 399.684 239.905 396.459 230.754 399.435C227.178 400.472 224.073 402.018 221.141 404.159C218.718 405.83 215.708 409.93 212.132 410.967C212.046 410.669 212.046 410.669 211.662 410.458C218.482 399.445 226.502 390.343 240.994 391.303C247.644 391.955 253.659 393.76 259.963 393.223ZM105.055 459.446C106.075 458.505 107.564 458.073 109.054 457.641C108.035 458.582 107.102 459.82 106.381 460.675C105.362 461.616 103.958 462.346 103.025 463.584C102.805 461.712 103.44 460.56 105.055 459.446ZM102.688 464.65C104.515 463.152 106.217 462.336 107.957 460.54C109.698 458.745 111.438 456.949 113.179 455.154C113.053 455.836 112.928 456.517 112.803 457.199C111.274 458.611 109.62 460.704 108.091 462.115C107.283 462.672 104.61 465.706 103.12 466.138C102.736 465.927 102.563 465.332 102.688 464.65ZM104.972 471.409C104.799 470.814 104.328 470.305 104.156 469.71C107.135 468.846 109.77 466.791 112.318 464.439C111.981 465.504 111.942 466.484 111.519 467.252C110.413 467.895 109.692 468.75 108.586 469.393C107.183 470.123 106.077 470.766 104.972 471.409ZM108.124 471.14C107.403 471.995 106.595 472.552 105.874 473.406C105.788 473.109 105.615 472.513 105.529 472.216C106.125 472.043 107.23 471.4 108.124 471.14ZM103.897 468.817C103.724 468.222 103.638 467.924 103.465 467.329C105.849 466.637 110.522 462.701 112.897 459.753C112.772 460.435 112.647 461.116 112.819 461.712C109.675 464.237 107.213 466.887 103.897 468.817ZM143.538 471.841C134.796 481.797 122.15 496.113 108.018 488.596C102.724 485.936 101.917 486.493 104.966 481.414C106.236 479.109 109.254 477.266 111.293 475.384C119.235 468.241 126.37 461.654 132.218 452.859C132.429 452.475 132.045 452.264 131.834 452.648C129.497 454.616 121.719 460.099 114.114 466.176C114.451 465.111 114.49 464.131 114.827 463.065C116.292 455.864 119.687 451.976 125.936 447.905C137.328 440.406 148.98 433.8 159.815 425.495C180.255 410.209 201.926 393.598 215.653 371.87C216.469 373.57 217.285 375.269 218.014 376.671C208.206 386.291 200.963 398.072 190.684 407.184C178.367 418.178 165.061 426.877 152.015 436.469C164.897 428.538 177.27 421.078 188.952 411.236C200.634 401.394 209.156 389.565 219.983 379.004C221.01 380.319 221.952 381.337 222.893 382.355C219.365 384.669 216.73 386.723 214.229 390.353C210.498 395.307 207.237 400.77 202.65 405.005C202.439 405.389 202.823 405.6 203.121 405.513C206.986 402.134 210.381 398.245 213.776 394.356C217.468 390.381 221.122 387.386 225.458 384.515C225.842 384.726 226.313 385.235 226.995 385.36C228.916 386.416 232.03 387.126 234.547 388.01C232.673 388.23 230.501 388.538 228.203 389.527C218.927 393.185 212.138 400.962 208.721 410.343L208.807 410.64C199.013 412.513 190.576 412.379 181.778 418.802C176.721 422.527 168.144 430.823 167.275 437.851C167.072 440.492 167.84 440.914 168.147 443.084C168.539 445.552 168.673 447.126 168.72 448.403C160.057 456.401 151.048 463.209 143.538 471.841ZM259.709 451.378C256.707 457.734 254.089 464.301 253.22 471.33C248.333 463.389 250.645 454.652 256.454 446.837C259.252 443.121 261.196 438.685 263.524 434.46C264.034 433.99 264.159 433.308 264.669 432.838C264.88 432.454 265.476 432.281 265.688 431.897C265.986 431.81 266.198 431.426 266.409 431.042C268.386 435.632 261.018 448.094 259.709 451.378ZM263.263 421.306C258.487 420.433 255.006 424.024 251.737 427.231C249.275 429.881 247.582 432.953 245.12 435.603C240.408 440.519 236.236 441.729 229.893 443.246C229.893 443.246 229.681 443.63 229.979 443.544C237.052 443.428 240.934 444.561 246.281 438.493C250.397 433.75 254.825 421.172 263.098 422.967C263.232 424.542 263.279 425.819 263.115 427.48C262.519 427.653 262.221 427.739 261.712 428.21C252.962 435.91 246.816 444.792 235.368 448.757C227.707 451.302 221.277 452.521 214.518 457.063C207.163 461.777 201.087 466.444 192.36 468.652C189.678 469.43 165.565 470.938 166.002 462.421C166.206 459.781 173.137 455.835 173.763 452.426C174.515 448.336 172.594 447.28 171.644 444.006C167.885 429.93 183.363 420.924 194.56 418.322C200.308 416.977 205.209 417.169 209.757 413.914C215.012 417.553 225.705 405.417 229.704 403.612C238.98 399.954 249.944 403.227 258.537 399.444C260.709 399.137 262.795 398.532 265.179 397.841C261.612 401.134 255.864 402.478 251.606 403.391C244.58 404.783 240.409 405.993 234.544 410.275L234.63 410.573C242.157 406.454 249.576 407.529 257.323 405.282C248.142 411.494 240.247 419.915 228.704 421.326C228.406 421.413 228.492 421.71 228.79 421.624C242.639 421.48 252.698 410.496 264.694 405.08C264.569 405.762 264.444 406.444 264.318 407.125C259.724 409.103 257.136 412.435 253.742 416.324C246.529 424.869 238.476 424.946 228.384 426.905C214.034 429.776 203.984 443.016 190.881 449.075C190.583 449.161 190.756 449.757 191.054 449.67C197.696 448.067 202.925 444.937 208.963 441.249C218.23 435.335 224.864 431.475 235.724 429.939C250.333 427.96 252.291 415.776 263.558 408.959C263.307 410.323 263.143 411.984 262.892 413.347C262.901 415.603 263.082 418.455 263.263 421.306ZM265.797 426.702C265.875 424.744 265.866 422.487 265.858 420.231C265.402 411.974 267.251 404.984 270.59 397.562C271.823 408.498 272.163 419.693 269.091 430.264C268.659 428.776 267.718 427.758 266.181 426.914C266.181 426.914 266.095 426.616 265.797 426.702ZM285.002 469.534C283.449 464.176 279.001 459.98 276.256 454.968C273.424 449.659 272.764 444.042 271.422 438.301C274.206 442.333 277.924 445.127 281.987 449.112C292.677 459.241 290.327 468.957 287.263 481.785C285.963 487.325 284.412 494.228 289.831 496.206C289.109 497.06 288.09 498.001 287.369 498.856C274.281 497.166 287.247 477.272 285.002 469.534ZM320.948 464.271C321.719 476.955 320.004 485.519 311.646 495.687C307.828 500.344 303.626 504.789 300.193 509.657C298.327 512.134 296.806 515.802 294.172 517.857C286.33 517.55 289.056 505.788 291.855 502.072C294.144 498.827 296.904 496.091 299.577 493.056C303.693 488.313 307.339 483.061 307.4 476.59C307.227 475.995 306.545 475.87 306.333 476.254C303.716 482.821 299.6 487.565 294.504 492.269C293.186 493.297 291.956 494.622 291.023 495.86C283.98 492.74 291.137 480.661 292.399 476.101C293.66 471.54 294.624 467.066 293.541 462.217C290.934 448.775 275.493 444.541 270.589 432.089C272.321 428.037 273.371 423.86 274.037 419.472C274.649 423.812 275.772 427.681 277.278 431.762C281.405 441.536 294.29 445.866 296.331 456.245C296.417 456.543 296.715 456.456 296.629 456.159C295.749 448.67 290.196 445.117 285.702 439.645C278.682 431.032 275.911 419.252 275.187 407.845C277.808 413.539 279.746 419.107 282.962 424.628C287.292 431.762 292.555 437.657 296.078 445.348C296.164 445.645 296.76 445.472 296.674 445.175C294.218 437.82 289.762 431.368 286.499 424.57C283.667 419.261 282.113 413.903 279.665 408.805C284.583 413.51 288.905 418.387 293.524 423.178C302.168 432.933 306.178 445.645 313.63 455.745L313.418 456.13C312.393 467.075 317.328 476.292 311.613 486.662C307.89 493.872 302.072 499.432 298.051 506.729C297.84 507.113 298.224 507.324 298.435 506.94C303.562 499 311.677 492.451 315.565 483.58C319.115 475.774 317.679 467.478 316.328 459.48C317.74 461.007 319.066 462.236 320.775 463.676C321.073 463.59 320.862 463.974 320.948 464.271ZM317.726 434.229C319.868 437.157 321.798 440.47 323.045 443.657C324.85 447.651 328.929 456.148 327.37 460.795C326.696 462.927 326.994 462.841 324.774 461.871C322.257 460.988 320.241 457.378 319.55 454.996C318.687 452.02 319.102 448.996 318.921 446.144C318.991 441.929 319.147 438.012 317.726 434.229ZM314.151 435.266C316.905 442.534 315.613 450.33 317.81 456.792C310.954 446.519 307.203 434.699 299.453 424.685C293.758 417.302 284.911 410.188 280.15 401.566C284.714 402.823 289.364 404.379 292.87 407.557C296.29 410.437 297.796 414.518 300.918 417.484C302.714 419.222 304.722 420.576 306.432 422.016C307.546 423.629 308.448 425.626 309.562 427.239C311.319 429.956 312.99 432.376 314.151 435.266ZM371.938 401.727C382.689 405.385 391.019 410.714 389.657 422.725C389.164 427.708 387.76 428.438 388.373 432.778C388.632 433.671 390.208 433.536 389.949 432.643C389.729 430.771 390.787 428.851 391.547 427.017L391.634 427.314C397.526 442.062 378.854 440.056 370.659 436.302C365.067 433.729 359.514 430.176 353.499 428.371C349.233 427.027 344.803 427.344 340.536 426C334.906 424.406 331.4 421.228 326.49 418.78C319.448 415.66 312.163 416.159 304.533 415.468C302.737 413.73 300.94 411.992 299.27 409.573C297.983 407.365 296.273 405.924 294.477 404.187C309.401 406.635 325.961 402.477 339.882 410.379C340.267 410.59 340.478 410.206 340.094 409.995C333.216 405.213 323.366 403.552 315.265 402.352C308.529 401.402 300.774 401.393 293.653 400.231C297.997 399.616 302.169 398.407 306.254 396.899C321.074 394.537 335.864 395.41 350.632 401.776C351.016 401.987 351.227 401.603 350.843 401.392C340.593 395.007 330.1 392.242 319.404 392.117C324.979 390.178 330.381 387.643 335.313 384.599C335.399 384.897 335.784 385.108 336.254 385.617C347.869 392.251 359.735 397.522 371.938 401.727ZM341.506 376.995C332.498 383.802 321.943 387.509 311.091 391.301C308.409 392.079 306.112 393.068 303.43 393.846C304.834 393.116 306.324 392.684 307.429 392.041C315.427 388.43 321.966 382.017 330.309 379.597C334.182 378.474 337.931 378.032 341.506 376.995ZM324.717 377.024C321.016 378.743 317.488 381.057 313.662 383.457C303.798 389.544 290.946 394.24 279.223 392.8C286.672 390.639 293.391 387.077 300.197 383.813C309.214 379.261 316.75 377.399 324.717 377.024ZM337.291 320.136C331.106 329.996 325.517 339.684 319.716 349.756C316.753 355.133 312.935 359.79 309.886 364.869C308.53 366.876 307.26 369.18 306.374 371.696C305.402 373.913 304.132 376.218 303.545 378.647C295.249 382.344 287.337 386.252 279.042 389.948C283.455 385.119 288.599 381.691 293.397 377.073C298.705 371.984 301.323 365.416 305.305 359.099C305.517 358.715 304.748 358.292 304.536 358.676C298.602 367.173 293.428 373.837 284.842 379.876C281.4 382.488 278.343 385.311 275.669 388.345C275.795 387.663 276.304 387.193 276.43 386.511C277.276 384.975 278.209 383.736 278.421 383.352C279.056 382.2 279.989 380.961 280.921 379.723C283.297 376.775 285.97 373.741 288.557 370.409C293.645 363.448 295.918 355.69 297.633 347.126C301.103 329.018 313.365 314.491 316.835 296.382C317.046 295.998 316.364 295.874 316.153 296.258C310.934 313.905 298.586 328.134 294.52 346.415C293.219 351.955 291.746 356.9 289.889 361.634C290.084 356.737 289.596 351.715 289.07 347.673C288.984 347.376 288.897 347.078 288.811 346.78C289.672 337.496 295.049 328.192 296.592 319.032C297.759 311.918 298.973 306.08 303.724 300.185C305.59 297.708 308.695 296.162 310.177 293.473C311.744 291.083 312.418 288.951 312.535 286.013C312.613 284.054 312.817 281.414 313.193 279.369C315.326 280.041 315.476 286.128 316.206 287.53C317.194 289.825 319.288 291.476 322.017 291.975C326.707 292.551 331.811 290.103 332.986 285.245C333.112 284.563 332.045 284.227 331.92 284.909C330.909 288.106 327.42 289.441 324.181 289.412C319.962 289.345 318.119 286.33 316.785 282.845C316.267 281.059 315.278 278.764 313.616 278.601C314.29 276.469 316.203 275.269 319.834 277.765C322.909 279.455 321.349 284.102 326.375 283.613C334.256 282.94 330.458 269.844 336.052 284.678C341.427 297.64 346.063 306.943 337.291 320.136ZM434.761 231.85C433.232 233.261 432.213 234.202 431.492 235.057C426.919 231.543 421.283 239.953 417.755 242.267C417.457 242.354 417.841 242.565 417.841 242.565C421.542 240.846 425.485 235.508 429.626 237.534C428.145 240.222 428.028 243.16 426.546 245.849C424.853 248.921 420.517 251.792 416.894 251.552C411.609 251.149 412.11 248.422 409.757 245.878C405.992 241.807 400.667 242.383 398.387 247.885C398.387 247.885 398.473 248.182 398.771 248.096C402.675 243.737 405.585 247.088 407.813 250.314C401.94 252.34 397.267 256.276 392.383 260.597C388.729 263.593 385.546 267.097 381.335 269.286C377.634 271.005 373.502 271.236 369.715 272.657C369.119 272.829 369.166 274.106 369.848 274.231C370.828 274.27 371.809 274.308 372.789 274.346C370.539 276.612 368.759 279.387 366.039 281.144C362.424 283.161 357.907 283.18 353.995 285.283C353.485 285.753 353.744 286.646 354.638 286.387C359.194 285.388 364.565 286.089 368.862 284.197C372.563 282.479 375.448 279.061 377.824 276.113C378.247 275.345 378.372 274.663 378.2 274.068C379.478 274.02 380.67 273.674 382.16 273.242C377.659 277.774 373.457 282.219 368.188 286.329C363.468 288.989 358.191 290.842 352.78 291.12C352.482 291.207 352.569 291.504 352.569 291.504C355.298 292.004 357.854 291.907 360.41 291.811C359.305 292.455 358.286 293.396 357.18 294.039C354.796 294.73 352.624 295.038 350.28 294.75C349.895 294.538 349.77 295.22 350.154 295.431C351.307 296.065 352.758 296.612 354.334 296.478C352.296 298.36 350.555 300.155 348.987 302.546C348.422 299.483 347.261 296.593 345.504 293.876C342.248 289.335 340.837 287.808 338.985 282.537C338.467 280.751 337.815 277.391 336.317 275.566C332.168 271.284 332.608 275.029 328.609 276.834C323.505 279.282 321.959 276.181 319.99 273.848C320.625 272.696 321.472 271.16 322.962 270.728C324.365 269.998 326.624 269.988 327.768 268.366C328.066 268.279 327.98 267.982 327.893 267.684C328.403 267.213 328.615 266.829 328.356 265.936C327.799 265.13 327.626 264.535 326.771 263.815C324.591 261.866 326.033 260.156 330.417 258.563C331.695 258.515 333.616 259.571 334.683 259.907C337.114 260.492 339.67 260.396 342.054 259.705C338.824 261.932 334.95 263.056 330.99 263.882C330.692 263.968 330.778 264.266 331.076 264.179C336.276 264.285 340.706 263.968 344.83 261.481C344.156 263.613 343.396 265.446 342.848 266.896C342.636 267.28 343.193 268.087 343.702 267.616C348.76 263.891 351.361 252.811 352.277 247.06C353.193 241.309 353.043 235.221 350.807 229.739C348.571 224.257 343.787 221.127 340.022 217.056C341.676 214.963 343.416 213.167 345.071 211.074C350.075 216.076 352.868 222.365 354.257 229.384C355.733 236.7 354.393 243.219 354.803 250.199C353.909 250.459 353.399 250.929 352.764 252.081C352.341 252.849 353.494 253.483 354.003 253.013C355.869 250.535 360.269 253.454 362.825 253.358C364.998 253.051 367.209 251.764 368.651 250.055C371.536 246.637 372.5 242.163 374.616 238.322C374.703 238.62 374.789 238.917 374.962 239.513L375.048 239.81C375.229 242.662 374.814 245.686 374.909 248.24C374.744 249.901 377.262 250.785 378.195 249.546C380.147 247.366 379.754 244.899 378.679 242.307C379.063 242.518 379.361 242.431 379.746 242.643C380.899 243.276 381.84 244.294 382.271 245.782C382.358 246.08 383.04 246.205 382.867 245.609C382.475 243.142 381.275 241.231 379.565 239.791C385.218 235.893 390.487 231.783 395.371 227.463C395.098 234.318 391.375 241.529 386.577 246.147C381.865 251.063 375.348 251.985 370.378 256.008C365.109 260.117 362.232 265.792 364.727 272.167C364.813 272.465 365.496 272.589 365.323 271.994C363.736 257.611 382.572 257.957 390.64 250.131C394.207 246.838 396.833 242.527 398.392 237.88C401.701 233.694 406.546 230.352 406.992 224.092C407.602 216.171 400.309 214.414 398.284 208.548C398.496 208.164 398.41 207.866 398.621 207.482C402.99 213.637 413.146 217.467 409.47 225.955C409.259 226.339 409.643 226.55 409.855 226.166C414.761 216.353 401.492 211.812 399.969 203.219C401.403 199.254 403.52 195.413 405.338 191.659C409.783 183.594 414.188 176.508 415.731 167.348C418.444 163.335 425.573 166.753 428.435 168.827C430.232 170.564 431.73 172.389 433.949 173.358C436.851 174.453 441.916 172.984 444.058 175.912C445.172 177.525 445.478 179.695 446.082 181.778C446.461 191.994 445.177 202.047 444.575 212.224C444.012 221.422 442.233 224.197 434.761 231.85ZM516.709 163.554C516.411 163.64 516.411 163.64 516.113 163.727C515.517 163.899 515.219 163.986 514.623 164.159C511.212 163.535 510.396 161.835 509.956 158.091C509.602 154.644 510.786 152.042 512.181 149.056C512.393 148.672 512.009 148.461 511.797 148.845C509.382 152.772 507.18 156.315 507.965 161.25C508.271 163.42 509.385 165.033 511.22 165.791C508.923 166.78 506.414 168.153 504.069 167.865C503.771 167.951 503.559 168.336 503.944 168.547C505.01 168.883 506.077 169.219 507.355 169.171C501.318 172.858 495.366 176.842 488.858 180.021C472.016 188.777 457.872 201.269 447.619 217.15C447.658 216.17 447.697 215.191 447.649 213.914C447.861 213.53 447.688 212.935 447.9 212.551L448.198 212.464C459.997 199.685 471.71 186.607 484.066 174.634C484.364 174.548 483.98 174.337 483.98 174.337C471.192 184.822 459.643 196.238 448.268 208.249C448.518 206.886 448.385 205.311 448.635 203.948L448.933 203.861C452.242 199.675 456.578 196.804 460.27 192.829C464.386 188.086 468.973 183.852 473.002 178.811C473.214 178.427 472.743 177.918 472.532 178.302C467.82 183.218 462.551 187.328 457.753 191.946C455.205 194.298 451.676 196.612 448.917 199.349C449.284 195.047 449.652 190.746 449.635 186.233C455.79 179.608 464.681 175.739 470.365 168.605C474.395 163.564 474.456 157.093 477.121 151.803C478.352 150.478 479.583 149.153 480.728 147.53C489.296 136.978 496.459 114.895 511.452 113.128C511.413 114.107 511.288 114.789 511.249 115.768C509.202 115.394 506.866 117.362 505.721 118.985C504.577 120.607 503.816 122.441 502.97 123.977C501.998 126.195 499.959 128.077 498.987 130.295C498.776 130.679 499.16 130.89 499.372 130.506C500.853 127.818 503.276 126.147 504.757 123.459C505.69 122.22 508.442 117.228 510.661 118.197C510.661 118.197 510.661 118.197 510.959 118.111C511.26 130.285 507.13 142.777 491.775 138.84C491.092 138.716 490.669 139.484 491.438 139.906C497.03 142.479 502.825 142.412 507.882 138.687C510.006 137.102 511.363 135.096 512.421 133.175C512.641 135.047 512.477 136.709 512.014 138.456C510.455 143.103 505.005 144.361 501.179 146.761C497.65 149.075 491.103 153.233 494.743 157.985C495.214 158.494 496.021 157.937 495.551 157.429C492.287 150.631 506.425 148.144 509.992 144.851C512.031 142.969 513.301 140.664 513.504 138.024C513.707 135.384 513.613 132.83 513.518 130.276C513.98 128.528 514.356 126.483 514.732 124.438C515.367 123.286 515.618 121.922 516.253 120.77C516.802 119.32 520.054 111.601 522.666 115.038C522.666 115.038 523.051 115.249 522.964 114.952C522.783 112.1 518.823 112.926 517.295 114.337C517.083 114.721 516.487 114.894 516.275 115.278C517.373 112.379 518.729 110.372 520.767 108.49C521.575 107.933 522.171 107.76 523.065 107.501C525.15 106.896 527.62 106.502 528.311 108.884C528.656 110.074 528.406 111.438 528.069 112.503C525.607 115.153 523.145 117.803 522.001 119.426C517.634 125.532 517.918 133.194 515.387 140.059C515.387 140.059 515.473 140.357 515.387 140.059C517.542 135.239 518.756 129.402 521.21 124.495C523.538 120.271 527.191 117.275 529.99 113.559C530.202 113.175 530.711 112.705 530.923 112.321C530.288 113.473 529.442 115.009 528.422 115.95C527.191 117.275 525.961 118.6 525.114 120.136C523.593 123.804 524.12 127.846 522.215 131.303C521.321 131.562 520.427 131.821 519.235 132.167C518.341 132.426 518.263 134.385 519.455 134.039C519.753 133.953 520.051 133.866 520.435 134.078C520.664 138.206 519.48 140.808 517.191 144.053C515.325 146.531 513.757 148.921 513.342 151.946C512.975 156.247 515.509 161.643 520.229 158.983C520.613 159.195 520.998 159.406 521.468 159.915C520.324 161.537 518.324 162.44 516.709 163.554ZM525.64 158.705C525.13 159.175 524.832 159.262 524.236 159.435C523.42 157.735 520.182 157.707 519.875 155.537C519.224 152.176 523.301 148.412 523.927 145.004C524.139 144.62 523.457 144.495 523.245 144.879C522.109 148.758 517.6 151.034 517.146 155.037C517.107 156.017 517.068 156.996 517.625 157.803C515.319 156.535 515.178 152.704 516.361 150.102C517.333 147.884 519.073 146.089 520.218 144.466C522.295 141.605 523.691 138.619 522.145 135.518C523.125 135.556 524.192 135.892 524.961 136.315C524.412 137.764 524.248 139.426 523.911 140.491C523.699 140.875 524.381 141 524.593 140.616C524.93 139.55 525.353 138.782 525.776 138.014C525.988 137.63 526.286 137.544 526.498 137.16C527.651 137.793 528.592 138.811 529.149 139.617C526.381 140.098 526.907 144.14 526.704 146.78C526.837 148.355 526.712 149.036 525.779 150.275C525.058 151.13 523.952 151.773 523.317 152.925C522.894 153.693 522.855 154.672 523.114 155.565C523.671 156.372 524.996 157.601 525.64 158.705ZM531.613 149.228C530.65 153.703 528.784 156.18 526.447 158.148C526.188 157.255 525.42 156.833 525.074 155.642C524.211 152.666 527.662 152.31 528.547 149.795C529.009 148.047 526.977 139.925 530.733 141.739L531.031 141.653C531.722 144.034 532.201 146.799 531.613 149.228ZM534.799 123.458C533.577 127.04 531.711 129.517 530.488 133.098C530.104 132.887 529.72 132.676 529.037 132.551C529.586 131.101 529.962 129.056 530.299 127.99C531.185 125.475 532.627 123.766 534.752 122.181C535.05 122.095 535.05 122.095 535.348 122.008C534.838 122.479 534.925 122.777 534.799 123.458ZM535.081 118.859C534.061 119.8 532.062 120.703 531.341 121.557C530.321 122.498 529.475 124.034 529.224 125.398C528.887 126.464 529.029 130.295 527.971 132.215C527.289 132.09 526.606 131.965 525.626 131.927C526.676 127.75 525.083 123.372 528.266 119.868C530.43 117.304 532.767 115.336 533.268 112.609C534.256 114.903 535.159 116.901 535.081 118.859ZM529.598 111.092C530.099 108.365 528.64 105.561 525.017 105.322C527.565 102.969 530.834 99.7623 532.772 105.331C532.31 107.078 531.252 108.999 529.598 111.092Z" fill="black"/>
<path d="M293.211 95.7539C294.442 94.4289 294.136 92.259 293.022 90.646C291.908 89.033 286.058 85.567 290.911 84.482C291.209 84.3956 291.123 84.0979 290.825 84.1843C287.586 84.1556 286.105 86.844 287.564 89.6476C288.294 91.0493 293.078 94.1793 290.569 95.5523C288.271 96.5413 285.62 94.0834 283.997 92.9409C283.612 92.7297 283.103 93.2001 283.573 93.709C285.965 95.274 290.413 99.4697 293.211 95.7539Z" fill="black"/>
<path d="M384.512 159.946C384.214 160.033 384.598 160.244 384.512 159.946C396.595 154.829 408.043 150.863 421.43 152.466C429.444 153.368 435.373 154.876 443.552 154.117C444.147 153.944 444.186 152.965 443.59 153.138C432.596 153.1 421.97 148.76 411.023 149.999C401.268 150.892 392.847 155.27 384.512 159.946Z" fill="black"/>
<path d="M318.365 225.918C318.577 225.534 317.808 225.112 317.597 225.496C311.718 237.526 303.469 242.5 290.42 239.831C285.942 238.871 283.174 239.351 281.144 243.489C281.231 243.787 281.317 244.085 281.528 243.701C285.981 237.892 291.927 243.912 296.914 244.401C299.855 244.516 302.537 243.739 305.046 242.366C311.256 239.274 315.834 232.783 318.365 225.918Z" fill="black"/>
<path d="M347.677 189.99C341.405 199.553 332.012 206.149 327.278 216.557C322.207 228.03 322.689 243.057 309.029 248.309C308.433 248.482 308.481 249.759 309.375 249.499C319.208 246.648 322.711 237.565 325.32 228.741C327.804 220.599 330.163 213.139 335.635 206.389C339.877 200.964 344.886 195.962 347.975 189.903C348.273 189.817 347.889 189.605 347.677 189.99Z" fill="black"/>
<path d="M340.235 263.459C335.986 266.627 330.553 272.398 324.797 271.486C324.499 271.572 324.287 271.956 324.585 271.87C330.859 274.568 337.829 269.642 340.792 264.265C341.388 264.093 340.831 263.286 340.235 263.459Z" fill="black"/>
<path d="M356.438 265.859C352.879 271.409 343.737 276.641 349.643 283.641C350.114 284.15 351.219 283.506 350.748 282.997C348.253 276.622 354.157 271.36 356.438 265.859C356.352 265.561 356.736 265.772 356.438 265.859Z" fill="black"/>
<path d="M347.977 271.217C347.977 271.217 347.891 270.919 347.977 271.217C345.899 274.078 342.842 276.901 342.686 280.818C342.655 284.054 344.922 286.3 348.035 287.011C348.717 287.136 349.439 286.281 348.882 285.475C343.243 281.625 345.696 276.718 347.977 271.217Z" fill="black"/>
<path d="M332.393 297.678C334.874 311.802 326.313 324.61 320.223 337.025C319.8 337.793 320.953 338.427 321.376 337.658C329.129 325.407 338.458 313.021 332.691 297.592C332.605 297.294 332.307 297.381 332.393 297.678Z" fill="black"/>
<path d="M220.059 330.258C220.733 328.126 220.128 326.043 218.928 324.132C215.846 320.186 210.003 318.976 210.449 312.716C210.363 312.419 210.065 312.505 210.065 312.505C209.477 314.934 210.081 317.018 211.368 319.226C212.827 322.03 216.756 324.44 217.321 327.502C217.667 328.693 215.205 331.343 213.927 331.391C213.331 331.564 212.476 330.844 211.794 330.719C210.727 330.383 209.449 330.431 208.469 330.392C205.912 330.489 203.952 330.412 202.298 332.505C201.576 333.359 202.816 334.291 203.537 333.436C207.614 329.672 211.206 333.148 215.213 333.599C217.26 333.974 219.385 332.389 220.059 330.258Z" fill="black"/>
<path d="M237.181 351.429C240.405 359.206 246.045 363.056 252.499 368.605C252.884 368.816 253.095 368.432 253.009 368.135C247.534 362.624 243.213 357.746 240.161 350.565C238.183 345.975 236.504 341.299 234.441 336.412C231.177 329.615 227.663 324.18 222.063 319.351C221.679 319.14 221.169 319.61 221.553 319.821C231.303 328.933 232.45 339.571 237.181 351.429Z" fill="black"/>
<path d="M194.153 458.129C191.048 459.675 187.77 460.625 184.406 461.278C181.936 461.672 178.063 462.795 175.671 461.23C174.047 460.088 173.961 459.79 174.807 458.254C175.317 457.783 176.125 457.227 176.634 456.756C177.356 455.902 178.163 455.345 178.798 454.193C179.01 453.808 178.625 453.597 178.414 453.981C176.846 456.372 167.225 458.84 172.652 463.074C175.13 464.937 178.792 464.197 181.56 463.717C186.203 463.016 190.672 461.72 194.796 459.233C195.306 458.762 194.749 457.956 194.153 458.129Z" fill="black"/>
<path d="M176.23 439.772C175.395 421.299 203.619 425.052 214.29 418.408C214.799 417.937 214.329 417.429 213.733 417.601C202.716 423.055 171.803 417.823 175.548 439.647C175.721 440.242 176.019 440.156 176.23 439.772Z" fill="black"/>
<path d="M372.058 411.05C373.979 412.106 376.41 412.692 378.034 413.834C381.665 416.331 382.105 420.075 381.651 424.079C381.612 425.058 383.274 425.221 383.611 424.156C385.084 419.211 384.001 414.362 379.813 411.059C377.335 409.197 374.221 408.486 371.406 407.69C367.226 406.643 363.979 404.358 360.011 402.928C359.627 402.716 359.415 403.1 359.799 403.312C364.113 405.933 367.532 408.813 372.058 411.05Z" fill="black"/>
<path d="M366.075 418.27C366.036 419.25 363.527 420.623 363.661 422.197C363.708 423.474 364.351 424.579 365.591 425.51C367.857 427.757 370.673 428.553 372.642 430.886C374.438 432.624 375.167 434.026 377.598 434.612C378.963 434.861 379.339 432.816 378.272 432.48C375.755 431.597 374.382 429.091 372.374 427.737C371.221 427.104 369.771 426.556 368.916 425.836C367.676 424.905 365.88 423.167 366.641 421.333C367.487 419.797 369.746 419.787 369.353 417.32C368.913 413.575 357.746 412.942 359.353 409.572C359.776 408.804 358.624 408.17 358.2 408.938C354.045 414.661 365.635 414.526 366.075 418.27Z" fill="black"/>
<path d="M160.08 450.909C155.07 455.912 149.244 459.214 144.062 463.622C138.581 468.115 134.81 474.049 129.714 478.754C122.878 485.254 116.79 475.403 111.758 485.897C111.335 486.665 112.103 487.088 112.613 486.617C119.92 480.626 123.905 486.569 130.319 480.837C140.597 471.725 150.828 461.336 160.55 451.418C160.762 451.034 160.378 450.823 160.08 450.909Z" fill="black"/>
<path d="M503.134 156.842C501.472 156.679 500.327 158.302 498.367 158.225C498.069 158.311 498.155 158.609 498.155 158.609C499.519 158.859 500.625 158.215 501.99 158.465C503.652 158.628 503.276 160.673 502.555 161.528C501.41 163.15 498.987 164.821 499.976 167.116C500.149 167.711 501.043 167.452 500.87 166.857C500.438 165.368 502.649 164.082 503.755 163.438C504.774 162.497 505.707 161.259 505.871 159.598C505.526 158.407 504.71 156.708 503.134 156.842Z" fill="black"/>
</g>
</svg>
