<svg width="140" height="93" viewBox="0 0 140 93" fill="none" xmlns="http://www.w3.org/2000/svg">
<path d="M13.3091 14.7085H24.8776C26.4133 14.7085 27.693 14.9128 28.8191 15.2703C29.9453 15.6278 30.8667 16.2406 31.6345 17.0067C32.2488 17.5685 32.6583 18.1813 32.9654 18.8963C33.2725 19.6113 33.4261 20.3774 33.4261 21.1945V21.2456C33.4261 22.0116 33.3237 22.7266 33.119 23.2884C32.9142 23.9012 32.6583 24.412 32.2999 24.8205C31.9928 25.2802 31.5833 25.6887 31.1226 26.0462C30.6619 26.3526 30.2012 26.6591 29.7405 26.9144C30.5084 27.1698 31.225 27.5273 31.8392 27.8848C32.4535 28.2423 33.0166 28.7019 33.4773 29.1615C33.938 29.6212 34.2451 30.234 34.501 30.898C34.757 31.5619 34.8594 32.3279 34.8594 33.1961V33.2472C34.8594 34.3708 34.6546 35.3922 34.1939 36.3115C33.7332 37.1797 33.0678 37.9457 32.2488 38.5075C31.3786 39.1204 30.406 39.5289 29.2286 39.8354C28.0513 40.1418 26.7716 40.295 25.3383 40.295H13.4115L13.3091 14.7085ZM24.0074 25.6377C25.4919 25.6377 26.6692 25.3312 27.5394 24.7695C28.4096 24.1566 28.8703 23.2884 28.8703 22.1138V22.0627C28.8703 21.0413 28.4608 20.2241 27.693 19.6113C26.9252 18.9984 25.799 18.7431 24.3146 18.7431H17.8137V25.5355L24.0074 25.6377ZM25.3895 36.4647C26.9252 36.4647 28.1537 36.1582 29.0239 35.5965C29.8941 34.9836 30.3548 34.1154 30.3548 32.9408V32.8897C30.3548 31.7662 29.8941 30.949 29.0239 30.3362C28.1537 29.7233 26.8228 29.468 25.0312 29.468H17.8648V36.5157L25.3895 36.4647Z" fill="white"/>
<path d="M40.0293 40.4482V14.7085H51.5467C53.1847 14.7085 54.618 14.9128 55.8465 15.3724C57.075 15.8321 58.15 16.4449 58.969 17.262C59.6856 17.977 60.1975 18.7942 60.5558 19.7134C60.9141 20.6327 61.1189 21.6541 61.1189 22.7777V22.8288C61.1189 23.9012 60.9653 24.8716 60.6582 25.6887C60.3511 26.5059 59.9415 27.2719 59.3785 27.8848C58.8154 28.5487 58.15 29.1105 57.4333 29.519C56.7167 29.9787 55.8465 30.3362 54.9251 30.5915L61.8867 40.3461H56.5631L50.2158 31.4087H44.5339V40.3971L40.0293 40.4482ZM51.1883 27.4251C52.8264 27.4251 54.1061 27.0166 55.0787 26.2505C56.0512 25.4844 56.5119 24.412 56.5119 23.0841V22.982C56.5119 21.6031 56.0512 20.5306 55.1298 19.7645C54.2085 19.0495 52.8776 18.641 51.1883 18.641H44.5339V27.2719L51.1883 27.4251Z" fill="white"/>
<path d="M66.647 14.6062H85.7914V18.6408H71.2027V25.3311H84.1534V29.3657H71.2027V36.2602H85.9962V40.3459H66.6982V14.6062H66.647Z" fill="white"/>
<path d="M89.3745 14.6062H94.2886L100.431 33.7067L106.779 14.5552H110.618L116.965 33.7067L123.108 14.6062H127.868L118.859 40.5502H114.969L108.621 22.0626L102.274 40.5502H98.3836L89.3745 14.6062Z" fill="white"/>
<path d="M21.8063 59.5996C21.4479 59.8039 21.0384 59.9061 20.5777 60.0082C20.117 60.1104 19.6564 60.1614 19.0933 60.1614C18.2743 60.1614 17.5064 60.0082 16.7898 59.7018C16.0732 59.3954 15.4589 58.9868 14.947 58.425C14.4351 57.9143 14.0256 57.3015 13.7185 56.5865C13.4114 55.8715 13.2578 55.1054 13.2578 54.2883V54.2372C13.2578 53.4201 13.4114 52.654 13.7185 51.939C14.0256 51.224 14.4351 50.5601 14.947 50.0494C15.4589 49.5387 16.0732 49.0791 16.7898 48.7726C17.5064 48.4662 18.3255 48.313 19.1957 48.313C19.7075 48.313 20.2194 48.3641 20.6289 48.4662C21.0384 48.5683 21.4479 48.6705 21.8063 48.8237C22.1646 48.9769 22.4717 49.1812 22.83 49.3855C23.1883 49.5898 23.4443 49.8451 23.7002 50.1005L22.4205 51.5815C21.9598 51.173 21.4479 50.8155 20.9872 50.5601C20.4754 50.3048 19.9123 50.1515 19.2468 50.1515C18.6838 50.1515 18.2231 50.2537 17.7624 50.458C17.3017 50.6622 16.8922 50.9687 16.5339 51.3262C16.1755 51.6837 15.9196 52.1433 15.766 52.6029C15.6125 53.0626 15.5101 53.6244 15.5101 54.1861V54.2372C15.5101 54.799 15.6125 55.3097 15.766 55.8204C15.9196 56.3311 16.2267 56.7397 16.5339 57.1482C16.8922 57.5057 17.3017 57.8122 17.7624 58.0164C18.2231 58.2207 18.735 58.3229 19.2468 58.3229C19.9635 58.3229 20.5777 58.1697 21.0896 57.9143C21.6015 57.659 22.1134 57.3015 22.5741 56.8418L23.8538 58.1697C23.5467 58.4761 23.2395 58.7825 22.9324 58.9868C22.5741 59.1911 22.2158 59.3954 21.8063 59.5996Z" fill="white"/>
<path d="M36.1389 58.374C35.5759 58.9358 34.9616 59.3444 34.245 59.6508C33.5283 59.9572 32.7093 60.1104 31.8391 60.1104C30.9689 60.1104 30.1499 59.9572 29.4333 59.6508C28.7166 59.3444 28.0512 58.9358 27.5393 58.374C27.0274 57.8123 26.6179 57.1994 26.3108 56.4844C26.0037 55.7694 25.8501 55.0034 25.8501 54.1862V54.1352C25.8501 53.318 26.0037 52.552 26.3108 51.837C26.6179 51.122 27.0274 50.4581 27.5393 49.9473C28.1024 49.3856 28.7166 48.977 29.4333 48.6706C30.1499 48.3642 30.9689 48.2109 31.8391 48.2109C32.7093 48.2109 33.5283 48.3642 34.245 48.6706C34.9616 48.977 35.6271 49.3856 36.1389 49.9473C36.6508 50.5091 37.0603 51.122 37.3675 51.837C37.6746 52.552 37.8282 53.318 37.8282 54.1352V54.1862C37.8282 55.0034 37.6746 55.7694 37.3675 56.4844C37.1115 57.1994 36.702 57.8123 36.1389 58.374ZM29.0238 57.0973C29.3821 57.4548 29.7916 57.7612 30.2523 57.9655C30.713 58.1698 31.2761 58.2719 31.8391 58.2719C32.4022 58.2719 32.9141 58.1698 33.426 57.9655C33.8867 57.7612 34.2962 57.4548 34.6545 57.0973C35.0128 56.7398 35.2687 56.3312 35.4735 55.8205C35.6783 55.3098 35.7806 54.7991 35.7806 54.2373V54.1862C35.7806 53.6244 35.6783 53.1137 35.4735 52.603C35.2687 52.0923 35.0128 51.6838 34.6545 51.2752C34.2962 50.9177 33.8867 50.6113 33.426 50.407C32.9653 50.2027 32.4022 50.1006 31.8391 50.1006C31.2761 50.1006 30.7642 50.2027 30.2523 50.407C29.7916 50.6113 29.3821 50.9177 29.0238 51.2752C28.6655 51.6327 28.4095 52.0923 28.2048 52.552C28 53.0116 27.8976 53.5734 27.8976 54.1352V54.1862C27.8976 54.748 28 55.2587 28.2048 55.7694C28.4095 56.2801 28.7166 56.7398 29.0238 57.0973Z" fill="white"/>
<path d="M40.6948 48.5173H49.2433V50.3559H42.6912V53.4712H48.4754V55.3098H42.6912V59.9572H40.6948V48.5173Z" fill="white"/>
<path d="M51.8535 48.5173H60.402V50.3559H53.901V53.4712H59.6853V55.3098H53.901V59.9572H51.9047V48.5173H51.8535Z" fill="white"/>
<path d="M63.0126 48.5173H71.5099V50.3048H65.009V53.2669H70.742V55.0544H65.009V58.1187H71.5611V59.9061H62.9614V48.5173H63.0126Z" fill="white"/>
<path d="M74.3764 48.5173H82.8736V50.3048H76.3727V53.2669H82.1058V55.0544H76.3727V58.1187H82.9248V59.9061H74.3252V48.5173H74.3764Z" fill="white"/>
<path d="M92.3438 48.5684H97.4626C98.128 48.5684 98.7423 48.6705 99.203 48.8237C99.7149 48.9769 100.124 49.2323 100.483 49.5898C100.739 49.8451 100.943 50.1005 101.097 50.4069C101.251 50.7133 101.302 51.0708 101.302 51.4283V51.4794C101.302 51.8369 101.251 52.1433 101.148 52.3987C101.046 52.654 100.943 52.9094 100.79 53.0626C100.636 53.2669 100.483 53.4712 100.278 53.6244C100.073 53.7776 99.8684 53.8797 99.6637 54.0329C100.022 54.1351 100.329 54.2883 100.585 54.4415C100.841 54.5947 101.097 54.799 101.302 55.0033C101.506 55.2076 101.66 55.4629 101.762 55.7693C101.865 56.0758 101.916 56.3822 101.916 56.7908V56.8418C101.916 57.3525 101.814 57.8122 101.609 58.2207C101.404 58.6293 101.097 58.9357 100.739 59.1911C100.38 59.4464 99.9196 59.6507 99.4077 59.8039C98.8959 59.9572 98.3328 60.0082 97.6673 60.0082H92.3438V48.5684ZM97.1043 53.4201C97.7697 53.4201 98.2816 53.2669 98.6911 53.0115C99.1006 52.7562 99.3054 52.3476 99.3054 51.8369V51.7858C99.3054 51.3262 99.1006 50.9687 98.7935 50.7133C98.4863 50.458 97.9233 50.3048 97.309 50.3048H94.3913V53.369L97.1043 53.4201ZM97.7185 58.2207C98.384 58.2207 98.947 58.0675 99.3566 57.8122C99.7661 57.5568 99.9708 57.1483 99.9708 56.6376V56.5865C99.9708 56.0758 99.7661 55.7183 99.3566 55.4629C98.947 55.2076 98.384 55.0544 97.565 55.0544H94.3913V58.1697L97.7185 58.2207Z" fill="white"/>
<path d="M108.673 48.4153H110.515L115.583 59.9573H113.433L112.256 57.1995H106.83L105.653 59.9573H103.605L108.673 48.4153ZM111.59 55.412L109.594 50.8156L107.649 55.412H111.59Z" fill="white"/>
<path d="M117.989 60.0082V48.5684H123.108C123.825 48.5684 124.49 48.6705 125.002 48.8748C125.565 49.0791 126.026 49.3344 126.384 49.6919C126.691 49.9983 126.947 50.3558 127.101 50.7644C127.254 51.173 127.357 51.6326 127.357 52.1433V52.1944C127.357 52.654 127.306 53.1137 127.152 53.4712C126.998 53.8287 126.845 54.1862 126.589 54.4415C126.333 54.7479 126.026 55.0033 125.719 55.1565C125.412 55.3608 125.002 55.514 124.593 55.6161L127.664 59.9572H125.309L122.494 55.9736H119.986V59.9572L117.989 60.0082ZM122.955 54.1862C123.671 54.1862 124.234 53.9819 124.695 53.6754C125.104 53.3179 125.309 52.8583 125.309 52.2455V52.1944C125.309 51.5815 125.104 51.1219 124.695 50.7644C124.285 50.458 123.671 50.2537 122.955 50.2537H120.037V54.084L122.955 54.1862Z" fill="white"/>
<path d="M13.3091 74.9719H14.384L17.8648 79.4151V74.9719H18.9398V81.4068H17.9672L14.4352 76.8105V81.4068H13.3091V74.9719Z" fill="white"/>
<path d="M27.9487 80.4877C27.6415 80.7941 27.2832 81.0495 26.8737 81.2027C26.4642 81.3559 26.0035 81.4581 25.4916 81.4581C24.9797 81.4581 24.5191 81.3559 24.1095 81.2027C23.7 81.0495 23.3417 80.7941 23.0346 80.4877C22.7275 80.1813 22.5227 79.8238 22.318 79.4152C22.1644 79.0067 22.062 78.5981 22.062 78.1385C22.062 77.6788 22.1644 77.2702 22.318 76.8617C22.4715 76.4531 22.7275 76.0956 23.0346 75.7892C23.3417 75.4828 23.7 75.2274 24.1095 75.0742C24.5191 74.921 24.9797 74.8188 25.4916 74.8188C26.0035 74.8188 26.4642 74.921 26.8737 75.0742C27.2832 75.2274 27.6415 75.4828 27.9487 75.7892C28.2558 76.0956 28.4606 76.4531 28.6653 76.8617C28.8189 77.2702 28.9212 77.6788 28.9212 78.1385C28.9212 78.5981 28.8189 79.0067 28.6653 79.4152C28.4606 79.8749 28.2558 80.1813 27.9487 80.4877ZM23.956 79.7727C24.1607 79.977 24.3655 80.1302 24.6726 80.2834C24.9286 80.3856 25.2357 80.4877 25.5428 80.4877C25.8499 80.4877 26.1571 80.4366 26.413 80.2834C26.669 80.1813 26.9249 79.977 27.1297 79.7727C27.3344 79.5684 27.488 79.3131 27.5903 79.0577C27.6927 78.8024 27.7439 78.496 27.7439 78.1895C27.7439 77.8831 27.6927 77.5767 27.5903 77.3213C27.488 77.066 27.3344 76.8106 27.1297 76.6063C26.9249 76.402 26.7201 76.2488 26.413 76.0956C26.1059 75.9424 25.8499 75.8913 25.5428 75.8913C25.2357 75.8913 24.9286 75.9424 24.6726 76.0956C24.4167 76.2488 24.1607 76.402 23.956 76.6063C23.7512 76.8106 23.5977 77.066 23.4953 77.3213C23.3929 77.5767 23.3417 77.8831 23.3417 78.1895C23.3417 78.496 23.3929 78.8024 23.4953 79.0577C23.5977 79.3642 23.7512 79.5684 23.956 79.7727Z" fill="white"/>
<path d="M32.0952 81.4068V74.9719H34.9618C35.3713 74.9719 35.7296 75.023 36.0367 75.1251C36.3438 75.2273 36.5998 75.3805 36.8045 75.5848C36.9581 75.738 37.1117 75.9423 37.214 76.1976C37.3164 76.453 37.3676 76.7083 37.3676 76.9637C37.3676 77.219 37.3164 77.4744 37.2652 77.6787C37.214 77.883 37.0605 78.0872 36.9581 78.2405C36.8045 78.3937 36.651 78.5469 36.4462 78.649C36.2415 78.7512 36.0367 78.8533 35.832 78.9044L37.5724 81.3558H36.2415L34.6546 79.1087H33.2214V81.3558L32.0952 81.4068ZM34.9106 78.1383C35.3201 78.1383 35.6272 78.0362 35.8831 77.8319C36.1391 77.6276 36.2415 77.3722 36.2415 77.0658C36.2415 76.7083 36.1391 76.453 35.8831 76.2487C35.6272 76.0444 35.3201 75.9933 34.9106 75.9933H33.2725V78.1383H34.9106Z" fill="white"/>
<path d="M42.1789 75.9934H40.1313V74.9209H45.3526V75.9934H43.305V81.4069H42.1789V75.9934Z" fill="white"/>
<path d="M48.4238 74.9719H49.55V77.6276H52.6213V74.9719H53.7474V81.4068H52.6213V78.649H49.55V81.3558H48.4238V74.9719Z" fill="white"/>
<path d="M68.7458 81.2026C68.541 81.3048 68.2851 81.4069 68.0291 81.458C67.7732 81.509 67.5173 81.5601 67.2101 81.5601C66.7494 81.5601 66.2887 81.458 65.9304 81.3048C65.5721 81.1515 65.2138 80.8962 64.9067 80.5898C64.5995 80.2833 64.3948 79.9258 64.19 79.5173C64.0365 79.1087 63.9341 78.7001 63.9341 78.2405C63.9341 77.7809 64.0365 77.3723 64.19 76.9637C64.3436 76.5552 64.5995 76.1977 64.9067 75.8912C65.2138 75.5848 65.5721 75.3295 65.9816 75.1763C66.3911 75.023 66.8518 74.9209 67.3125 74.9209C67.6196 74.9209 67.8756 74.972 68.1315 74.972C68.3875 75.023 68.5922 75.0741 68.797 75.1763C69.0017 75.2784 69.2065 75.3805 69.36 75.4827C69.5136 75.5848 69.7184 75.738 69.8719 75.8912L69.1553 76.7084C68.8993 76.453 68.6434 76.2998 68.3363 76.1466C68.0291 75.9934 67.722 75.9423 67.3637 75.9423C67.0566 75.9423 66.7494 75.9934 66.4935 76.1466C66.2376 76.2487 65.9816 76.453 65.8281 76.6573C65.6233 76.8616 65.4697 77.1169 65.3674 77.3723C65.265 77.6277 65.2138 77.9341 65.2138 78.2405C65.2138 78.5469 65.265 78.8534 65.3674 79.1087C65.4697 79.3641 65.6233 79.6194 65.8281 79.8237C66.0328 80.028 66.2376 80.1812 66.4935 80.3344C66.7494 80.4366 67.0566 80.5387 67.3637 80.5387C67.7732 80.5387 68.0803 80.4876 68.3875 80.3344C68.6946 80.1812 68.9505 79.9769 69.2065 79.7216L69.9231 80.4366C69.7696 80.5898 69.5648 80.743 69.4112 80.8962C69.2065 80.9473 69.0017 81.1005 68.7458 81.2026Z" fill="white"/>
<path d="M75.1956 74.9209H76.2706L79.086 81.4069H77.9086L77.2432 79.8748H74.1719L73.5064 81.4069H72.3291L75.1956 74.9209ZM76.8337 78.8534L75.7075 76.2998L74.5814 78.8534H76.8337Z" fill="white"/>
<path d="M82.0547 81.4068V74.9719H84.9212C85.3307 74.9719 85.6891 75.023 85.9962 75.1251C86.3033 75.2273 86.5593 75.3805 86.764 75.5848C86.9176 75.738 87.0711 75.9423 87.1735 76.1976C87.2759 76.453 87.3271 76.7083 87.3271 76.9637C87.3271 77.219 87.2759 77.4744 87.2247 77.6787C87.1735 77.883 87.02 78.0872 86.9176 78.2405C86.764 78.3937 86.6104 78.5469 86.4057 78.649C86.2009 78.7512 85.9962 78.8533 85.7914 78.9044L87.5318 81.3558H86.2009L84.6141 79.1087H83.1808V81.3558L82.0547 81.4068ZM84.8189 78.1383C85.2284 78.1383 85.5355 78.0362 85.7914 77.8319C86.0474 77.6276 86.1498 77.3722 86.1498 77.0658C86.1498 76.7083 86.0474 76.453 85.7914 76.2487C85.5355 76.0444 85.2284 75.9933 84.8189 75.9933H83.1808V78.1383H84.8189Z" fill="white"/>
<path d="M96.0292 80.4877C95.7221 80.7941 95.3638 81.0495 94.9543 81.2027C94.5448 81.3559 94.0841 81.4581 93.5722 81.4581C93.0603 81.4581 92.5996 81.3559 92.1901 81.2027C91.7806 81.0495 91.4223 80.7941 91.1152 80.4877C90.808 80.1813 90.6033 79.8238 90.3985 79.4152C90.1938 79.0067 90.1426 78.5981 90.1426 78.1385C90.1426 77.6788 90.245 77.2702 90.3985 76.8617C90.5521 76.4531 90.808 76.0956 91.1152 75.7892C91.4223 75.4828 91.7806 75.2274 92.1901 75.0742C92.5996 74.921 93.0603 74.8188 93.5722 74.8188C94.0841 74.8188 94.5448 74.921 94.9543 75.0742C95.3638 75.2274 95.7221 75.4828 96.0292 75.7892C96.3364 76.0956 96.5411 76.4531 96.7459 76.8617C96.9506 77.2702 97.0018 77.6788 97.0018 78.1385C97.0018 78.5981 96.8994 79.0067 96.7459 79.4152C96.5923 79.8749 96.3364 80.1813 96.0292 80.4877ZM92.0365 79.7727C92.2413 79.977 92.446 80.1302 92.7532 80.2834C93.0091 80.3856 93.3162 80.4877 93.6234 80.4877C93.9305 80.4877 94.2376 80.4366 94.4936 80.2834C94.7495 80.1813 95.0055 79.977 95.159 79.7727C95.3638 79.5684 95.5173 79.3131 95.6197 79.0577C95.7221 78.8024 95.7733 78.496 95.7733 78.1895C95.7733 77.8831 95.7221 77.5767 95.6197 77.3213C95.5173 77.066 95.3638 76.8106 95.159 76.6063C94.9543 76.402 94.7495 76.2488 94.4936 76.0956C94.2376 75.9935 93.9305 75.8913 93.6234 75.8913C93.3162 75.8913 93.0091 75.9424 92.7532 76.0956C92.4972 76.1978 92.2413 76.402 92.0365 76.6063C91.8318 76.8106 91.6782 77.066 91.5758 77.3213C91.4735 77.5767 91.4223 77.8831 91.4223 78.1895C91.4223 78.496 91.4735 78.8024 91.5758 79.0577C91.7294 79.3642 91.883 79.5684 92.0365 79.7727Z" fill="white"/>
<path d="M100.227 74.9719H101.353V80.3854H104.731V81.4068H100.227V74.9719Z" fill="white"/>
<path d="M107.802 74.9719H108.928V81.4068H107.802V74.9719Z" fill="white"/>
<path d="M112.512 74.9719H113.587L117.067 79.4151V74.9719H118.194V81.4068H117.221L113.689 76.8105V81.4068H112.563V74.9719H112.512Z" fill="white"/>
<path d="M123.927 74.9209H125.002L127.817 81.4069H126.64L125.975 79.8748H122.903L122.238 81.4069H121.061L123.927 74.9209ZM125.565 78.8534L124.439 76.2998L123.313 78.8534H125.565Z" fill="white"/>
<path d="M140 93H0V0H140V93ZM1.02377 91.9786H138.976V1.02142H1.02377V91.9786Z" fill="white"/>
<path d="M127.766 67.6177H13.4111V68.6391H127.766V67.6177Z" fill="white"/>
</svg>
