<svg width="140" height="94" viewBox="0 0 140 94" fill="none" xmlns="http://www.w3.org/2000/svg">
<path d="M13.3091 14.8142H24.8776C26.4133 14.8142 27.693 15.0185 28.8191 15.376C29.9453 15.7335 30.8667 16.3463 31.6345 17.1124C32.2488 17.6741 32.6583 18.287 32.9654 19.002C33.2725 19.717 33.4261 20.483 33.4261 21.3002V21.3512C33.4261 22.1173 33.3237 22.8323 33.119 23.3941C32.9142 24.0069 32.6583 24.5176 32.2999 24.9262C31.9928 25.3858 31.5833 25.7944 31.1226 26.1519C30.6619 26.4583 30.2012 26.7648 29.7405 27.0201C30.5084 27.2755 31.225 27.633 31.8392 27.9905C32.4535 28.3479 33.0166 28.8076 33.4773 29.2672C33.938 29.7269 34.2451 30.3397 34.501 31.0036C34.757 31.6676 34.8594 32.4336 34.8594 33.3018V33.3529C34.8594 34.4765 34.6546 35.4979 34.1939 36.4171C33.7332 37.2853 33.0678 38.0514 32.2488 38.6132C31.3786 39.226 30.406 39.6346 29.2286 39.941C28.0513 40.2475 26.7716 40.4007 25.3383 40.4007H13.4115L13.3091 14.8142ZM24.0074 25.7433C25.4919 25.7433 26.6692 25.4369 27.5394 24.8751C28.4096 24.2623 28.8703 23.3941 28.8703 22.2194V22.1684C28.8703 21.147 28.4608 20.3298 27.693 19.717C26.9252 19.1041 25.799 18.8488 24.3146 18.8488H17.8137V25.6412L24.0074 25.7433ZM25.3895 36.5704C26.9252 36.5704 28.1537 36.2639 29.0239 35.7022C29.8941 35.0893 30.3548 34.2211 30.3548 33.0465V32.9954C30.3548 31.8718 29.8941 31.0547 29.0239 30.4419C28.1537 29.829 26.8228 29.5737 25.0312 29.5737H17.8648V36.6214L25.3895 36.5704Z" fill="black"/>
<path d="M40.0293 40.5539V14.8142H51.5467C53.1847 14.8142 54.618 15.0185 55.8465 15.4781C57.075 15.9377 58.15 16.5506 58.969 17.3677C59.6856 18.0827 60.1975 18.8998 60.5558 19.8191C60.9141 20.7384 61.1189 21.7598 61.1189 22.8834V22.9344C61.1189 24.0069 60.9653 24.9773 60.6582 25.7944C60.3511 26.6115 59.9415 27.3776 59.3785 27.9905C58.8154 28.6544 58.15 29.2162 57.4333 29.6247C56.7167 30.0844 55.8465 30.4419 54.9251 30.6972L61.8867 40.4517H56.5631L50.2158 31.5143H44.5339V40.5028L40.0293 40.5539ZM51.1883 27.5308C52.8264 27.5308 54.1061 27.1223 55.0787 26.3562C56.0512 25.5901 56.5119 24.5176 56.5119 23.1898V23.0877C56.5119 21.7087 56.0512 20.6363 55.1298 19.8702C54.2085 19.1552 52.8776 18.7466 51.1883 18.7466H44.5339V27.3776L51.1883 27.5308Z" fill="black"/>
<path d="M66.6475 14.712H85.7919V18.7466H71.2032V25.4369H84.1539V29.4715H71.2032V36.3661H85.9966V40.4517H66.6987V14.712H66.6475Z" fill="black"/>
<path d="M89.375 14.712H94.2891L100.432 33.8125L106.779 14.6609H110.618L116.965 33.8125L123.108 14.712H127.869L118.859 40.656H114.969L108.622 22.1684L102.274 40.656H98.3841L89.375 14.712Z" fill="black"/>
<path d="M21.8063 59.7054C21.4479 59.9097 21.0384 60.0119 20.5777 60.114C20.117 60.2162 19.6564 60.2672 19.0933 60.2672C18.2743 60.2672 17.5064 60.114 16.7898 59.8076C16.0732 59.5012 15.4589 59.0926 14.947 58.5308C14.4351 58.0201 14.0256 57.4073 13.7185 56.6923C13.4114 55.9773 13.2578 55.2112 13.2578 54.3941V54.343C13.2578 53.5259 13.4114 52.7598 13.7185 52.0448C14.0256 51.3298 14.4351 50.6659 14.947 50.1552C15.4589 49.6445 16.0732 49.1849 16.7898 48.8784C17.5064 48.572 18.3255 48.4188 19.1957 48.4188C19.7075 48.4188 20.2194 48.4699 20.6289 48.572C21.0384 48.6741 21.4479 48.7763 21.8063 48.9295C22.1646 49.0827 22.4717 49.287 22.83 49.4913C23.1883 49.6956 23.4443 49.9509 23.7002 50.2063L22.4205 51.6873C21.9598 51.2788 21.4479 50.9213 20.9872 50.6659C20.4754 50.4106 19.9123 50.2573 19.2468 50.2573C18.6838 50.2573 18.2231 50.3595 17.7624 50.5638C17.3017 50.7681 16.8922 51.0745 16.5339 51.432C16.1755 51.7895 15.9196 52.2491 15.766 52.7087C15.6125 53.1684 15.5101 53.7302 15.5101 54.2919V54.343C15.5101 54.9048 15.6125 55.4155 15.766 55.9262C15.9196 56.4369 16.2267 56.8455 16.5339 57.254C16.8922 57.6115 17.3017 57.918 17.7624 58.1223C18.2231 58.3265 18.735 58.4287 19.2468 58.4287C19.9635 58.4287 20.5777 58.2755 21.0896 58.0201C21.6015 57.7648 22.1134 57.4073 22.5741 56.9476L23.8538 58.2755C23.5467 58.5819 23.2395 58.8883 22.9324 59.0926C22.5741 59.2969 22.2158 59.5012 21.8063 59.7054Z" fill="black"/>
<path d="M36.1394 58.4797C35.5764 59.0415 34.9621 59.4501 34.2455 59.7565C33.5288 60.0629 32.7098 60.2162 31.8396 60.2162C30.9694 60.2162 30.1504 60.0629 29.4338 59.7565C28.7171 59.4501 28.0517 59.0415 27.5398 58.4797C27.0279 57.918 26.6184 57.3051 26.3113 56.5901C26.0042 55.8751 25.8506 55.1091 25.8506 54.2919V54.2409C25.8506 53.4237 26.0042 52.6577 26.3113 51.9427C26.6184 51.2277 27.0279 50.5638 27.5398 50.0531C28.1029 49.4913 28.7171 49.0827 29.4338 48.7763C30.1504 48.4699 30.9694 48.3167 31.8396 48.3167C32.7098 48.3167 33.5288 48.4699 34.2455 48.7763C34.9621 49.0827 35.6276 49.4913 36.1394 50.0531C36.6513 50.6148 37.0608 51.2277 37.368 51.9427C37.6751 52.6577 37.8286 53.4237 37.8286 54.2409V54.2919C37.8286 55.1091 37.6751 55.8751 37.368 56.5901C37.112 57.3051 36.7025 57.918 36.1394 58.4797ZM29.0243 57.203C29.3826 57.5605 29.7921 57.8669 30.2528 58.0712C30.7135 58.2755 31.2765 58.3776 31.8396 58.3776C32.4027 58.3776 32.9146 58.2755 33.4265 58.0712C33.8871 57.8669 34.2967 57.5605 34.655 57.203C35.0133 56.8455 35.2692 56.4369 35.474 55.9262C35.6787 55.4155 35.7811 54.9048 35.7811 54.343V54.2919C35.7811 53.7302 35.6787 53.2194 35.474 52.7087C35.2692 52.198 35.0133 51.7895 34.655 51.3809C34.2967 51.0234 33.8871 50.717 33.4265 50.5127C32.9658 50.3084 32.4027 50.2063 31.8396 50.2063C31.2765 50.2063 30.7647 50.3084 30.2528 50.5127C29.7921 50.717 29.3826 51.0234 29.0243 51.3809C28.6659 51.7384 28.41 52.198 28.2052 52.6577C28.0005 53.1173 27.8981 53.6791 27.8981 54.2409V54.2919C27.8981 54.8537 28.0005 55.3644 28.2052 55.8751C28.41 56.3858 28.7171 56.8455 29.0243 57.203Z" fill="black"/>
<path d="M40.6948 48.6231H49.2433V50.4616H42.6912V53.5769H48.4754V55.4155H42.6912V60.0629H40.6948V48.6231Z" fill="black"/>
<path d="M51.854 48.6231H60.4024V50.4616H53.9015V53.5769H59.6858V55.4155H53.9015V60.0629H51.9052V48.6231H51.854Z" fill="black"/>
<path d="M63.0131 48.6231H71.5104V50.4105H65.0094V53.3727H70.7425V55.1601H65.0094V58.2244H71.5616V60.0119H62.9619V48.6231H63.0131Z" fill="black"/>
<path d="M74.3769 48.6231H82.8741V50.4105H76.3732V53.3727H82.1063V55.1601H76.3732V58.2244H82.9253V60.0119H74.3257V48.6231H74.3769Z" fill="black"/>
<path d="M92.3438 48.6741H97.4626C98.128 48.6741 98.7423 48.7763 99.203 48.9295C99.7149 49.0827 100.124 49.3381 100.483 49.6956C100.739 49.9509 100.943 50.2063 101.097 50.5127C101.251 50.8191 101.302 51.1766 101.302 51.5341V51.5852C101.302 51.9427 101.251 52.2491 101.148 52.5045C101.046 52.7598 100.943 53.0152 100.79 53.1684C100.636 53.3727 100.483 53.577 100.278 53.7302C100.073 53.8834 99.8684 53.9855 99.6637 54.1387C100.022 54.2409 100.329 54.3941 100.585 54.5473C100.841 54.7005 101.097 54.9048 101.302 55.1091C101.506 55.3134 101.66 55.5687 101.762 55.8751C101.865 56.1816 101.916 56.488 101.916 56.8966V56.9476C101.916 57.4583 101.814 57.918 101.609 58.3265C101.404 58.7351 101.097 59.0415 100.739 59.2969C100.38 59.5522 99.9196 59.7565 99.4077 59.9097C98.8959 60.0629 98.3328 60.114 97.6673 60.114H92.3438V48.6741ZM97.1043 53.5259C97.7697 53.5259 98.2816 53.3727 98.6911 53.1173C99.1006 52.862 99.3054 52.4534 99.3054 51.9427V51.8916C99.3054 51.432 99.1006 51.0745 98.7935 50.8191C98.4863 50.5638 97.9233 50.4106 97.309 50.4106H94.3913V53.4748L97.1043 53.5259ZM97.7185 58.3265C98.384 58.3265 98.947 58.1733 99.3566 57.918C99.7661 57.6626 99.9708 57.2541 99.9708 56.7433V56.6923C99.9708 56.1816 99.7661 55.8241 99.3566 55.5687C98.947 55.3134 98.384 55.1601 97.565 55.1601H94.3913V58.2755L97.7185 58.3265Z" fill="black"/>
<path d="M108.673 48.5209H110.516L115.584 60.0629H113.434L112.256 57.3051H106.83L105.653 60.0629H103.605L108.673 48.5209ZM111.591 55.5176L109.595 50.9213L107.649 55.5176H111.591Z" fill="black"/>
<path d="M117.989 60.114V48.6741H123.108C123.825 48.6741 124.49 48.7763 125.002 48.9806C125.565 49.1849 126.026 49.4402 126.384 49.7977C126.691 50.1041 126.947 50.4616 127.101 50.8702C127.254 51.2788 127.357 51.7384 127.357 52.2491V52.3002C127.357 52.7598 127.306 53.2195 127.152 53.5769C126.998 53.9344 126.845 54.2919 126.589 54.5473C126.333 54.8537 126.026 55.1091 125.719 55.2623C125.412 55.4666 125.002 55.6198 124.593 55.7219L127.664 60.0629H125.309L122.494 56.0794H119.986V60.0629L117.989 60.114ZM122.955 54.2919C123.671 54.2919 124.234 54.0877 124.695 53.7812C125.104 53.4237 125.309 52.9641 125.309 52.3513V52.3002C125.309 51.6873 125.104 51.2277 124.695 50.8702C124.285 50.5638 123.671 50.3595 122.955 50.3595H120.037V54.1898L122.955 54.2919Z" fill="black"/>
<path d="M13.3091 75.0778H14.384L17.8648 79.5209V75.0778H18.9398V81.5127H17.9672L14.4352 76.9163V81.5127H13.3091V75.0778Z" fill="black"/>
<path d="M27.9492 80.5934C27.642 80.8999 27.2837 81.1552 26.8742 81.3084C26.4647 81.4616 26.004 81.5638 25.4921 81.5638C24.9802 81.5638 24.5195 81.4616 24.11 81.3084C23.7005 81.1552 23.3422 80.8999 23.0351 80.5934C22.7279 80.287 22.5232 79.9295 22.3184 79.5209C22.1649 79.1124 22.0625 78.7038 22.0625 78.2442C22.0625 77.7845 22.1649 77.376 22.3184 76.9674C22.472 76.5588 22.7279 76.2013 23.0351 75.8949C23.3422 75.5885 23.7005 75.3331 24.11 75.1799C24.5195 75.0267 24.9802 74.9246 25.4921 74.9246C26.004 74.9246 26.4647 75.0267 26.8742 75.1799C27.2837 75.3331 27.642 75.5885 27.9492 75.8949C28.2563 76.2013 28.461 76.5588 28.6658 76.9674C28.8194 77.376 28.9217 77.7845 28.9217 78.2442C28.9217 78.7038 28.8194 79.1124 28.6658 79.5209C28.461 79.9806 28.2563 80.287 27.9492 80.5934ZM23.9565 79.8784C24.1612 80.0827 24.366 80.2359 24.6731 80.3891C24.929 80.4913 25.2362 80.5934 25.5433 80.5934C25.8504 80.5934 26.1576 80.5424 26.4135 80.3891C26.6694 80.287 26.9254 80.0827 27.1301 79.8784C27.3349 79.6741 27.4885 79.4188 27.5908 79.1634C27.6932 78.9081 27.7444 78.6017 27.7444 78.2952C27.7444 77.9888 27.6932 77.6824 27.5908 77.427C27.4885 77.1717 27.3349 76.9163 27.1301 76.712C26.9254 76.5078 26.7206 76.3545 26.4135 76.2013C26.1064 76.0481 25.8504 75.9971 25.5433 75.9971C25.2362 75.9971 24.929 76.0481 24.6731 76.2013C24.4172 76.3545 24.1612 76.5078 23.9565 76.712C23.7517 76.9163 23.5982 77.1717 23.4958 77.427C23.3934 77.6824 23.3422 77.9888 23.3422 78.2952C23.3422 78.6017 23.3934 78.9081 23.4958 79.1634C23.5982 79.4699 23.7517 79.6741 23.9565 79.8784Z" fill="black"/>
<path d="M32.0952 81.5127V75.0778H34.9618C35.3713 75.0778 35.7296 75.1288 36.0367 75.231C36.3438 75.3331 36.5998 75.4863 36.8045 75.6906C36.9581 75.8438 37.1117 76.0481 37.214 76.3035C37.3164 76.5588 37.3676 76.8142 37.3676 77.0695C37.3676 77.3249 37.3164 77.5802 37.2652 77.7845C37.214 77.9888 37.0605 78.1931 36.9581 78.3463C36.8045 78.4995 36.651 78.6527 36.4462 78.7549C36.2415 78.857 36.0367 78.9591 35.832 79.0102L37.5724 81.4616H36.2415L34.6546 79.2145H33.2214V81.4616L32.0952 81.5127ZM34.9106 78.2441C35.3201 78.2441 35.6272 78.142 35.8831 77.9377C36.1391 77.7334 36.2415 77.4781 36.2415 77.1717C36.2415 76.8142 36.1391 76.5588 35.8831 76.3545C35.6272 76.1502 35.3201 76.0992 34.9106 76.0992H33.2725V78.2441H34.9106Z" fill="black"/>
<path d="M42.1794 76.0992H40.1318V75.0267H45.353V76.0992H43.3055V81.5127H42.1794V76.0992Z" fill="black"/>
<path d="M48.4243 75.0778H49.5505V77.7334H52.6218V75.0778H53.7479V81.5127H52.6218V78.7549H49.5505V81.4616H48.4243V75.0778Z" fill="black"/>
<path d="M68.7463 81.3084C68.5415 81.4106 68.2856 81.5127 68.0296 81.5638C67.7737 81.6148 67.5178 81.6659 67.2106 81.6659C66.7499 81.6659 66.2892 81.5638 65.9309 81.4106C65.5726 81.2573 65.2143 81.002 64.9071 80.6956C64.6 80.3891 64.3953 80.0316 64.1905 79.6231C64.0369 79.2145 63.9346 78.8059 63.9346 78.3463C63.9346 77.8867 64.0369 77.4781 64.1905 77.0695C64.3441 76.661 64.6 76.3035 64.9071 75.9971C65.2143 75.6906 65.5726 75.4353 65.9821 75.2821C66.3916 75.1288 66.8523 75.0267 67.313 75.0267C67.6201 75.0267 67.8761 75.0778 68.132 75.0778C68.388 75.1288 68.5927 75.1799 68.7975 75.2821C69.0022 75.3842 69.207 75.4863 69.3605 75.5885C69.5141 75.6906 69.7188 75.8438 69.8724 75.9971L69.1558 76.8142C68.8998 76.5588 68.6439 76.4056 68.3368 76.2524C68.0296 76.0992 67.7225 76.0481 67.3642 76.0481C67.0571 76.0481 66.7499 76.0992 66.494 76.2524C66.238 76.3545 65.9821 76.5588 65.8285 76.7631C65.6238 76.9674 65.4702 77.2228 65.3678 77.4781C65.2655 77.7335 65.2143 78.0399 65.2143 78.3463C65.2143 78.6527 65.2655 78.9592 65.3678 79.2145C65.4702 79.4699 65.6238 79.7252 65.8285 79.9295C66.0333 80.1338 66.238 80.287 66.494 80.4402C66.7499 80.5424 67.0571 80.6445 67.3642 80.6445C67.7737 80.6445 68.0808 80.5934 68.388 80.4402C68.6951 80.287 68.951 80.0827 69.207 79.8274L69.9236 80.5424C69.77 80.6956 69.5653 80.8488 69.4117 81.002C69.207 81.0531 69.0022 81.2063 68.7463 81.3084Z" fill="black"/>
<path d="M75.1956 75.0267H76.2706L79.086 81.5127H77.9086L77.2432 79.9806H74.1719L73.5064 81.5127H72.3291L75.1956 75.0267ZM76.8337 78.9592L75.7075 76.4056L74.5814 78.9592H76.8337Z" fill="black"/>
<path d="M82.0552 81.5127V75.0778H84.9217C85.3312 75.0778 85.6895 75.1288 85.9967 75.231C86.3038 75.3331 86.5597 75.4863 86.7645 75.6906C86.9181 75.8438 87.0716 76.0481 87.174 76.3035C87.2764 76.5588 87.3276 76.8142 87.3276 77.0695C87.3276 77.3249 87.2764 77.5802 87.2252 77.7845C87.174 77.9888 87.0204 78.1931 86.9181 78.3463C86.7645 78.4995 86.6109 78.6527 86.4062 78.7549C86.2014 78.857 85.9967 78.9591 85.7919 79.0102L87.5323 81.4616H86.2014L84.6146 79.2145H83.1813V81.4616L82.0552 81.5127ZM84.8193 78.2441C85.2288 78.2441 85.536 78.142 85.7919 77.9377C86.0479 77.7334 86.1502 77.4781 86.1502 77.1717C86.1502 76.8142 86.0479 76.5588 85.7919 76.3545C85.536 76.1502 85.2288 76.0992 84.8193 76.0992H83.1813V78.2441H84.8193Z" fill="black"/>
<path d="M96.0292 80.5934C95.7221 80.8999 95.3638 81.1552 94.9543 81.3084C94.5448 81.4616 94.0841 81.5638 93.5722 81.5638C93.0603 81.5638 92.5996 81.4616 92.1901 81.3084C91.7806 81.1552 91.4223 80.8999 91.1152 80.5934C90.808 80.287 90.6033 79.9295 90.3985 79.5209C90.1938 79.1124 90.1426 78.7038 90.1426 78.2442C90.1426 77.7845 90.245 77.376 90.3985 76.9674C90.5521 76.5588 90.808 76.2013 91.1152 75.8949C91.4223 75.5885 91.7806 75.3331 92.1901 75.1799C92.5996 75.0267 93.0603 74.9246 93.5722 74.9246C94.0841 74.9246 94.5448 75.0267 94.9543 75.1799C95.3638 75.3331 95.7221 75.5885 96.0292 75.8949C96.3364 76.2013 96.5411 76.5588 96.7459 76.9674C96.9506 77.376 97.0018 77.7845 97.0018 78.2442C97.0018 78.7038 96.8994 79.1124 96.7459 79.5209C96.5923 79.9806 96.3364 80.287 96.0292 80.5934ZM92.0365 79.8784C92.2413 80.0827 92.446 80.2359 92.7532 80.3891C93.0091 80.4913 93.3162 80.5934 93.6234 80.5934C93.9305 80.5934 94.2376 80.5424 94.4936 80.3891C94.7495 80.287 95.0055 80.0827 95.159 79.8784C95.3638 79.6741 95.5173 79.4188 95.6197 79.1634C95.7221 78.9081 95.7733 78.6017 95.7733 78.2952C95.7733 77.9888 95.7221 77.6824 95.6197 77.427C95.5173 77.1717 95.3638 76.9163 95.159 76.712C94.9543 76.5078 94.7495 76.3545 94.4936 76.2013C94.2376 76.0992 93.9305 75.9971 93.6234 75.9971C93.3162 75.9971 93.0091 76.0481 92.7532 76.2013C92.4972 76.3035 92.2413 76.5078 92.0365 76.712C91.8318 76.9163 91.6782 77.1717 91.5758 77.427C91.4735 77.6824 91.4223 77.9888 91.4223 78.2952C91.4223 78.6017 91.4735 78.9081 91.5758 79.1634C91.7294 79.4699 91.883 79.6741 92.0365 79.8784Z" fill="black"/>
<path d="M100.227 75.0778H101.353V80.4913H104.731V81.5127H100.227V75.0778Z" fill="black"/>
<path d="M107.803 75.0778H108.929V81.5127H107.803V75.0778Z" fill="black"/>
<path d="M112.512 75.0778H113.587L117.068 79.5209V75.0778H118.194V81.5127H117.222L113.69 76.9163V81.5127H112.563V75.0778H112.512Z" fill="black"/>
<path d="M123.927 75.0267H125.002L127.817 81.5127H126.64L125.975 79.9806H122.903L122.238 81.5127H121.061L123.927 75.0267ZM125.565 78.9592L124.439 76.4056L123.313 78.9592H125.565Z" fill="black"/>
<path d="M140 93.1058H0V0.105774H140V93.1058ZM1.02377 92.0844H138.976V1.12719H1.02377V92.0844Z" fill="black"/>
<path d="M127.766 67.7236H13.4111V68.745H127.766V67.7236Z" fill="black"/>
</svg>
