<svg xmlns="http://www.w3.org/2000/svg" viewBox="0 0 273.54 182.09"><defs><style>.cls-1{fill:#f1f2f2;}</style></defs><title>Asset 1</title><g id="Layer_2" data-name="Layer 2"><g id="Layer_1-2" data-name="Layer 1"><path class="cls-1" d="M26,28.77H48.65a24.54,24.54,0,0,1,7.7,1.08,14,14,0,0,1,5.55,3.39,10.74,10.74,0,0,1,2.59,3.67,11.5,11.5,0,0,1,.86,4.53v.15a11.59,11.59,0,0,1-.64,4,12.39,12.39,0,0,1-1.59,3A10.58,10.58,0,0,1,60.82,51a21.35,21.35,0,0,1-2.74,1.73,21.54,21.54,0,0,1,4.11,1.87,16.69,16.69,0,0,1,3.24,2.52,10.58,10.58,0,0,1,2,3.39,12.31,12.31,0,0,1,.72,4.53v.15a13.27,13.27,0,0,1-1.29,6,11.54,11.54,0,0,1-3.82,4.32,17.68,17.68,0,0,1-5.9,2.6,31.72,31.72,0,0,1-7.64.86H26.18ZM46.92,50.16a12.3,12.3,0,0,0,6.91-1.73,5.8,5.8,0,0,0,2.59-5.18V43.1a5.67,5.67,0,0,0-2.3-4.75c-1.51-1.15-3.74-1.73-6.62-1.73H34.75V50ZM49.58,71.4a12.74,12.74,0,0,0,7.13-1.73,5.81,5.81,0,0,0,2.6-5.18v-.15a5.63,5.63,0,0,0-2.6-5c-1.73-1.15-4.32-1.72-7.85-1.72h-14V71.47Z"/><path class="cls-1" d="M78.24,79.25V28.84H100.7a25.39,25.39,0,0,1,8.43,1.3,16.76,16.76,0,0,1,6.12,3.67,13.88,13.88,0,0,1,3.09,4.75,16.18,16.18,0,0,1,1.08,6v.15a16.86,16.86,0,0,1-.86,5.61A12.87,12.87,0,0,1,116,54.69a14.82,14.82,0,0,1-3.82,3.24A19.65,19.65,0,0,1,107.33,60L120.94,79.1H110.5L98.11,61.53H87V79.1ZM100,53.69a11.7,11.7,0,0,0,7.56-2.31,7.54,7.54,0,0,0,2.81-6.19V45a7.57,7.57,0,0,0-2.73-6.26c-1.8-1.44-4.4-2.16-7.71-2.16H87V53.54Z"/><path class="cls-1" d="M130.22,28.56h37.37v7.92H139.08v13.1h25.27V57.5H139.08V71H168V79H130.22Z"/><path class="cls-1" d="M174.57,28.56h9.58l12,37.37,12.39-37.52h7.49l12.38,37.52,12-37.37h9.29L232.18,79.32h-7.64L212.16,43.1,199.77,79.32h-7.63Z"/><path class="cls-1" d="M42.64,116.66a10.94,10.94,0,0,1-2.4.83,13.37,13.37,0,0,1-2.88.29,11,11,0,0,1-4.51-.9,10.82,10.82,0,0,1-3.55-2.5,11.1,11.1,0,0,1-2.4-3.64,11.92,11.92,0,0,1-.86-4.52v-.06a11.91,11.91,0,0,1,.86-4.51,11.62,11.62,0,0,1,2.4-3.71A11.24,11.24,0,0,1,33,95.44a11.66,11.66,0,0,1,4.67-.93,14.68,14.68,0,0,1,2.78.26,12,12,0,0,1,2.31.67,13.74,13.74,0,0,1,1.95,1.12A15.44,15.44,0,0,1,46.39,98l-2.53,2.91a13,13,0,0,0-2.85-2,7.27,7.27,0,0,0-3.42-.77,6.84,6.84,0,0,0-2.94.64,7.71,7.71,0,0,0-2.37,1.69A7.45,7.45,0,0,0,30.74,103,8.93,8.93,0,0,0,30.2,106v.07a8.93,8.93,0,0,0,.54,3.07,7.58,7.58,0,0,0,1.54,2.56,7.51,7.51,0,0,0,2.37,1.73,7,7,0,0,0,2.94.64,7.68,7.68,0,0,0,3.55-.77,13.28,13.28,0,0,0,2.91-2.11l2.53,2.56a15.4,15.4,0,0,1-1.82,1.63,12.9,12.9,0,0,1-2,1.25Z"/><path class="cls-1" d="M70.61,114.32a11.53,11.53,0,0,1-3.74,2.5,12.64,12.64,0,0,1-9.47,0,11,11,0,0,1-3.68-2.5,11.27,11.27,0,0,1-2.4-3.68,11.69,11.69,0,0,1-.87-4.48v-.06a11.69,11.69,0,0,1,.87-4.48,10.91,10.91,0,0,1,2.43-3.71,11.53,11.53,0,0,1,3.74-2.5,12.52,12.52,0,0,1,9.47,0,11,11,0,0,1,3.68,2.5,11.22,11.22,0,0,1,2.4,3.67,11.72,11.72,0,0,1,.87,4.48v.07a11.69,11.69,0,0,1-.87,4.48,10.89,10.89,0,0,1-2.43,3.68Zm-13.89-2.5a7.23,7.23,0,0,0,2.4,1.73,7.71,7.71,0,0,0,6.15,0,7,7,0,0,0,2.4-1.73,7.76,7.76,0,0,0,1.57-2.49,8.29,8.29,0,0,0,.57-3.07v-.07a8.29,8.29,0,0,0-.57-3.07,8.56,8.56,0,0,0-1.57-2.56,7.5,7.5,0,0,0-2.4-1.69,7.71,7.71,0,0,0-6.15,0,7.72,7.72,0,0,0-2.4,1.69,8.2,8.2,0,0,0-1.56,2.53,8.06,8.06,0,0,0-.58,3.07v.06a8.11,8.11,0,0,0,.58,3.08,7.5,7.5,0,0,0,1.6,2.49Z"/><path class="cls-1" d="M79.48,95H96.15v3.59H83.41v6.11h11.3v3.58H83.41v9.12H79.48Z"/><path class="cls-1" d="M101.27,95h16.67v3.59H105.2v6.11h11.3v3.58H105.2v9.12h-3.93Z"/><path class="cls-1" d="M123.06,95h16.61v3.52H127v5.82h11.23v3.53H127v6h12.83v3.52H123.06Z"/><path class="cls-1" d="M145.3,95h16.61v3.52H149.24v5.82h11.23v3.53H149.24v6h12.83v3.52H145.3Z"/><path class="cls-1" d="M180.44,95.06h10a11,11,0,0,1,3.43.48,6.23,6.23,0,0,1,2.46,1.5,4.76,4.76,0,0,1,1.15,1.63,5.09,5.09,0,0,1,.39,2v.06a5.17,5.17,0,0,1-.29,1.79,5.23,5.23,0,0,1-.71,1.35,4.67,4.67,0,0,1-1,1.06,9.57,9.57,0,0,1-1.22.76,9.94,9.94,0,0,1,1.83.83,7.73,7.73,0,0,1,1.44,1.13,4.56,4.56,0,0,1,.89,1.5,5.44,5.44,0,0,1,.32,2v.07a5.9,5.9,0,0,1-.57,2.65,5.13,5.13,0,0,1-1.7,1.92,7.76,7.76,0,0,1-2.62,1.16,14.3,14.3,0,0,1-3.39.38H180.5Zm9.28,9.5a5.5,5.5,0,0,0,3.07-.77,2.57,2.57,0,0,0,1.15-2.3v-.07a2.52,2.52,0,0,0-1-2.11,4.82,4.82,0,0,0-2.94-.76h-5.66v6ZM190.9,114a5.69,5.69,0,0,0,3.17-.77,2.6,2.6,0,0,0,1.15-2.3v-.07a2.49,2.49,0,0,0-1.15-2.2,6.27,6.27,0,0,0-3.49-.77h-6.24V114Z"/><path class="cls-1" d="M212.34,94.8H216l9.85,22.56h-4.16L219.41,112H208.82l-2.3,5.41h-4ZM218,108.46l-3.87-8.95-3.84,8.95Z"/><path class="cls-1" d="M230.51,117.49V95.09h10a11,11,0,0,1,3.74.58A7.24,7.24,0,0,1,247,97.3a6.18,6.18,0,0,1,1.38,2.11,7.2,7.2,0,0,1,.48,2.69v.06a7.5,7.5,0,0,1-.39,2.5,5.74,5.74,0,0,1-1.12,1.92,6.87,6.87,0,0,1-1.69,1.44,8.94,8.94,0,0,1-2.18.92l6.05,8.48h-4.64l-5.5-7.8h-4.93v7.8Zm9.67-11.36a5.2,5.2,0,0,0,3.36-1,3.4,3.4,0,0,0,1.25-2.76v-.06a3.36,3.36,0,0,0-1.22-2.78,5.38,5.38,0,0,0-3.42-1h-5.73v7.51Z"/><path class="cls-1" d="M26,146.76h2.05l6.76,8.71v-8.71H37v12.6H35.13l-7-9v9H26Z"/><path class="cls-1" d="M54.59,157.65a6.54,6.54,0,0,1-2.11,1.4,7,7,0,0,1-5.33,0,6.26,6.26,0,0,1-2.07-1.4,6.5,6.5,0,0,1-1.83-4.59v0a6.69,6.69,0,0,1,.48-2.52A6.26,6.26,0,0,1,47.21,147a7.09,7.09,0,0,1,5.33,0,6.26,6.26,0,0,1,2.07,1.4A6.5,6.5,0,0,1,56.44,153v0a6.69,6.69,0,0,1-.48,2.52,6.34,6.34,0,0,1-1.37,2.07Zm-7.82-1.4a4.18,4.18,0,0,0,3.08,1.33,4.23,4.23,0,0,0,4-2.74,4.55,4.55,0,0,0,.33-1.73v0a4.82,4.82,0,0,0-1.21-3.17,4.36,4.36,0,0,0-1.35-1,4.25,4.25,0,0,0-1.73-.36,4.2,4.2,0,0,0-1.72.36,4.29,4.29,0,0,0-1.36,1,4.64,4.64,0,0,0-1.2,3.15v0a4.71,4.71,0,0,0,.32,1.73,4.66,4.66,0,0,0,.9,1.41Z"/><path class="cls-1" d="M62.74,159.43v-12.6h5.62a6.44,6.44,0,0,1,2.1.32,4.09,4.09,0,0,1,1.53.92,3.37,3.37,0,0,1,.78,1.19,4,4,0,0,1,.27,1.51v0a4.07,4.07,0,0,1-.22,1.4,3,3,0,0,1-.63,1.08,3.5,3.5,0,0,1-1,.81,5.07,5.07,0,0,1-1.23.53l3.41,4.77H70.81l-3.1-4.4H64.94v4.4ZM68.18,153a2.92,2.92,0,0,0,1.89-.58,1.87,1.87,0,0,0,.7-1.54v0a1.9,1.9,0,0,0-.68-1.57,3,3,0,0,0-1.93-.54H64.94V153Z"/><path class="cls-1" d="M82.43,148.81h-4v-2.05H88.66v2.05h-4v10.55H82.43Z"/><path class="cls-1" d="M94.6,146.76h2.21V152h6v-5.24H105v12.6h-2.21v-5.31h-6v5.31H94.6Z"/><path class="cls-1" d="M134.33,159a6.52,6.52,0,0,1-1.35.47,7.41,7.41,0,0,1-1.62.16,6.23,6.23,0,0,1-2.54-.5,6.06,6.06,0,0,1-2-1.4,6.14,6.14,0,0,1-1.35-2.06,6.72,6.72,0,0,1-.49-2.54v0a6.72,6.72,0,0,1,.49-2.54,6.48,6.48,0,0,1,1.35-2.09,6.38,6.38,0,0,1,2.05-1.4,6.47,6.47,0,0,1,2.63-.53,8.29,8.29,0,0,1,1.57.15,6.08,6.08,0,0,1,1.29.38,6.56,6.56,0,0,1,1.1.63,7.28,7.28,0,0,1,1,.79L135,150.09a7.12,7.12,0,0,0-1.6-1.14,4.28,4.28,0,0,0-1.93-.43,3.94,3.94,0,0,0-1.65.36,4.59,4.59,0,0,0-1.34,1,4.51,4.51,0,0,0-.86,1.43,4.92,4.92,0,0,0-.31,1.73v0a5,5,0,0,0,.31,1.73,4.45,4.45,0,0,0,.86,1.44,4,4,0,0,0,1.34,1,3.79,3.79,0,0,0,1.65.36,4.28,4.28,0,0,0,2-.43,7.23,7.23,0,0,0,1.64-1.19l1.42,1.44a7.31,7.31,0,0,1-1,.92,6.17,6.17,0,0,1-1.16.7Z"/><path class="cls-1" d="M146.91,146.67H149l5.55,12.69h-2.34l-1.28-3h-6l-1.3,3h-2.27Zm3.17,7.68-2.18-5-2.16,5Z"/><path class="cls-1" d="M160.28,159.43v-12.6h5.62a6.54,6.54,0,0,1,2.11.32,4.26,4.26,0,0,1,1.53.92,3.49,3.49,0,0,1,.77,1.19,4,4,0,0,1,.27,1.51v0a4.07,4.07,0,0,1-.22,1.4,3,3,0,0,1-.63,1.08,3.5,3.5,0,0,1-.95.81,5,5,0,0,1-1.22.53l3.4,4.77h-2.61l-3.1-4.4h-2.77v4.4Zm5.44-6.39a2.92,2.92,0,0,0,1.89-.58,1.87,1.87,0,0,0,.7-1.54v0a1.9,1.9,0,0,0-.68-1.57,3,3,0,0,0-1.93-.54h-3.22V153Z"/><path class="cls-1" d="M187.64,157.65a6.49,6.49,0,0,1-2.1,1.4,7,7,0,0,1-5.33,0,6.16,6.16,0,0,1-2.07-1.4,6.29,6.29,0,0,1-1.35-2.07,6.5,6.5,0,0,1-.49-2.52v0a6.5,6.5,0,0,1,.49-2.52,6.34,6.34,0,0,1,1.36-2.09,6.65,6.65,0,0,1,2.11-1.4,7.09,7.09,0,0,1,5.33,0,6.16,6.16,0,0,1,2.07,1.4,6.39,6.39,0,0,1,1.35,2.07,6.54,6.54,0,0,1,.49,2.52v0a6.5,6.5,0,0,1-.49,2.52,6,6,0,0,1-1.37,2.07Zm-7.81-1.4a4.13,4.13,0,0,0,3.08,1.33,4.28,4.28,0,0,0,1.73-.36,4.23,4.23,0,0,0,1.35-1,4.43,4.43,0,0,0,.88-1.41,4.55,4.55,0,0,0,.32-1.73v0a4.51,4.51,0,0,0-.32-1.73,4.68,4.68,0,0,0-.88-1.44,4.36,4.36,0,0,0-1.35-1,4.34,4.34,0,0,0-3.46,0,4.21,4.21,0,0,0-2.23,2.38,4.55,4.55,0,0,0-.33,1.73v0a4.52,4.52,0,0,0,.33,1.73,4.31,4.31,0,0,0,.9,1.41Z"/><path class="cls-1" d="M195.78,146.76H198v10.58h6.63v2h-8.84Z"/><path class="cls-1" d="M210.65,146.76h2.21v12.6h-2.21Z"/><path class="cls-1" d="M219.82,146.76h2.06l6.75,8.71v-8.71h2.18v12.6H229l-6.95-9v9h-2.18Z"/><path class="cls-1" d="M242.11,146.67h2l5.55,12.69h-2.34l-1.28-3h-6l-1.3,3h-2.27Zm3.17,7.68-2.18-5-2.16,5Z"/><path class="cls-1" d="M273.54,182.09H0V0H273.54ZM2,180.09H271.54V2H2Z"/><rect class="cls-1" x="26.25" y="132.36" width="223.45" height="2"/></g></g></svg>