<svg width="32" height="32" viewBox="0 0 32 32" fill="none" xmlns="http://www.w3.org/2000/svg">
<path d="M32 1.78571C32 1.28571 31.7857 0.857143 31.4286 0.5C31.0714 0.214286 30.6429 0 30.2143 0H1.78571C1.21429 0 0.785714 0.214286 0.5 0.5C0.142857 0.857143 0 1.28571 0 1.78571V30.2143C0 30.7143 0.142857 31.1429 0.5 31.5C0.785714 31.8571 1.21429 32 1.78571 32H17.0714V19.5714H12.9286V14.7857H17.0714V11.2143C17.0714 9.21429 17.6429 7.64286 18.7857 6.5C19.9286 5.42857 21.4286 4.85714 23.2857 4.85714C24.7143 4.85714 26 4.92857 27 5V9.35714H24.4286C23.5 9.35714 22.8571 9.57143 22.5 10C22.2143 10.3571 22.0714 10.9286 22.0714 11.7143V14.7857H26.8571L26.2143 19.5714H22.0714V32H30.2143C30.7143 32 31.1429 31.8571 31.5 31.5C31.7857 31.1429 32 30.7143 32 30.2143V1.78571Z" fill="black"/>
</svg>
