<svg width="32" height="32" viewBox="0 0 32 32" fill="none" xmlns="http://www.w3.org/2000/svg">
<path d="M16 7.78571C17.4286 7.78571 18.7857 8.21429 20.0714 8.92857C21.3571 9.64286 22.3571 10.6429 23.0714 11.9286C23.7857 13.2143 24.2143 14.5714 24.2143 16C24.2143 17.5 23.7857 18.8571 23.0714 20.1429C22.3571 21.4286 21.3571 22.4286 20.0714 23.1429C18.7857 23.8571 17.4286 24.2143 16 24.2143C14.5 24.2143 13.1429 23.8571 11.8571 23.1429C10.5714 22.4286 9.57143 21.4286 8.85714 20.1429C8.14286 18.8571 7.78571 17.5 7.78571 16C7.78571 14.5714 8.14286 13.2143 8.85714 11.9286C9.57143 10.6429 10.5714 9.64286 11.8571 8.92857C13.1429 8.21429 14.5 7.78571 16 7.78571ZM16 21.3571C17.4286 21.3571 18.7143 20.8571 19.7857 19.7857C20.7857 18.7857 21.3571 17.5 21.3571 16C21.3571 14.5714 20.7857 13.2857 19.7857 12.2143C18.7143 11.2143 17.4286 10.6429 16 10.6429C14.5 10.6429 13.2143 11.2143 12.2143 12.2143C11.1429 13.2857 10.6429 14.5714 10.6429 16C10.6429 17.5 11.1429 18.7857 12.2143 19.7857C13.2143 20.8571 14.5 21.3571 16 21.3571ZM26.5 7.42857C26.5 6.92857 26.2857 6.5 25.9286 6.07143C25.5 5.71429 25.0714 5.5 24.5714 5.5C24 5.5 23.5714 5.71429 23.2143 6.07143C22.7857 6.5 22.6429 6.92857 22.6429 7.42857C22.6429 8 22.7857 8.42857 23.2143 8.78571C23.5714 9.21429 24 9.35714 24.5714 9.35714C25.0714 9.35714 25.5 9.21429 25.8571 8.78571C26.2143 8.42857 26.4286 8 26.5 7.42857ZM31.9286 9.35714C31.9286 10.7143 32 12.9286 32 16C32 19.1429 31.9286 21.3571 31.8571 22.7143C31.7857 24.0714 31.5714 25.2143 31.2857 26.2143C30.8571 27.4286 30.1429 28.5 29.2857 29.3571C28.4286 30.2143 27.3571 30.8571 26.2143 31.2857C25.2143 31.6429 24 31.8571 22.6429 31.9286C21.2857 32 19.0714 32 16 32C12.8571 32 10.6429 32 9.28571 31.9286C7.92857 31.8571 6.78571 31.6429 5.78571 31.2143C4.57143 30.8571 3.5 30.2143 2.64286 29.3571C1.78571 28.5 1.14286 27.4286 0.714286 26.2143C0.357143 25.2143 0.142857 24.0714 0.0714286 22.7143C0 21.3571 0 19.1429 0 16C0 12.9286 0 10.7143 0.0714286 9.35714C0.142857 8 0.357143 6.78571 0.714286 5.78571C1.14286 4.64286 1.78571 3.57143 2.64286 2.71429C3.5 1.85714 4.57143 1.14286 5.78571 0.714286C6.78571 0.428571 7.92857 0.214286 9.28571 0.142857C10.6429 0.0714286 12.8571 0 16 0C19.0714 0 21.2857 0.0714286 22.6429 0.142857C24 0.214286 25.2143 0.428571 26.2143 0.714286C27.3571 1.14286 28.4286 1.85714 29.2857 2.71429C30.1429 3.57143 30.8571 4.64286 31.2857 5.78571C31.5714 6.78571 31.7857 8 31.9286 9.35714ZM28.5 25.4286C28.7857 24.6429 28.9286 23.3571 29.0714 21.5714C29.0714 20.5714 29.1429 19.0714 29.1429 17.1429V14.8571C29.1429 12.9286 29.0714 11.4286 29.0714 10.4286C28.9286 8.64286 28.7857 7.35714 28.5 6.57143C27.9286 5.14286 26.8571 4.07143 25.4286 3.5C24.6429 3.21429 23.3571 3.07143 21.5714 2.92857C20.5 2.92857 19 2.85714 17.1429 2.85714H14.8571C12.9286 2.85714 11.4286 2.92857 10.4286 2.92857C8.64286 3.07143 7.35714 3.21429 6.57143 3.5C5.07143 4.07143 4.07143 5.14286 3.5 6.57143C3.21429 7.35714 3 8.64286 2.92857 10.4286C2.85714 11.5 2.85714 13 2.85714 14.8571V17.1429C2.85714 19.0714 2.85714 20.5714 2.92857 21.5714C3 23.3571 3.21429 24.6429 3.5 25.4286C4.07143 26.9286 5.14286 27.9286 6.57143 28.5C7.35714 28.7857 8.64286 29 10.4286 29.0714C11.4286 29.1429 12.9286 29.1429 14.8571 29.1429H17.1429C19.0714 29.1429 20.5714 29.1429 21.5714 29.0714C23.3571 29 24.6429 28.7857 25.4286 28.5C26.8571 27.9286 27.9286 26.8571 28.5 25.4286Z" fill="black"/>
</svg>
